<?xml version="1.0" standalone="no"?>
<!DOCTYPE svg PUBLIC "-//W3C//DTD SVG 1.1//EN" "http://www.w3.org/Graphics/SVG/1.1/DTD/svg11.dtd" >
<svg xmlns="http://www.w3.org/2000/svg" xmlns:xlink="http://www.w3.org/1999/xlink" version="1.1">
<metadata></metadata>
<defs>
<font id="arsenalregular" horiz-adv-x="1038" >
<font-face units-per-em="2048" ascent="1638" descent="-410" />
<missing-glyph horiz-adv-x="477" />
<glyph horiz-adv-x="0" />
<glyph unicode="&#xd;" horiz-adv-x="477" />
<glyph horiz-adv-x="0" />
<glyph horiz-adv-x="0" />
<glyph unicode=" "  horiz-adv-x="477" />
<glyph unicode="&#x09;" horiz-adv-x="477" />
<glyph unicode="&#xa0;" horiz-adv-x="477" />
<glyph unicode="!" horiz-adv-x="565" d="M193 76q0 43 28 69q29 25 64 25q39 0 65 -25q27 -27 27 -69q0 -43 -27 -70q-27 -25 -65 -24q-35 -1 -64 24q-29 27 -28 70zM203 1366v170h166v-170l-39 -932h-90z" />
<glyph unicode="&#x22;" horiz-adv-x="612" d="M70 1536l137 -4l-45 -471h-84zM358 1536l138 -4l-45 -471h-84z" />
<glyph unicode="#" horiz-adv-x="983" d="M100 446v84h181l55 267h-236v86h254l60 280l69 -20l-55 -260h213l55 258l70 -21l-49 -237h164v-86h-183l-55 -267h238v-84h-256l-58 -282l-69 20l53 262h-215l-53 -260l-70 21l49 239h-162zM354 530h215l56 267h-215z" />
<glyph unicode="$" horiz-adv-x="835" d="M74 266l51 72q0 -4 32.5 -39t90 -64.5t135.5 -29.5q115 0 173 57t58 139q0 59 -29.5 98.5t-73.5 61t-122 47.5q-90 33 -143 60.5t-91 83t-38 143.5q0 111 68.5 183.5t185.5 92.5l10 263h86l12 -256q61 -2 116.5 -19.5t89.5 -35t42 -23.5l-25 -88q-8 6 -40.5 25.5t-85 38 t-107.5 18.5q-94 0 -152.5 -47.5t-58.5 -118.5q0 -59 30.5 -99.5t77 -63t123.5 -50.5q90 -31 146.5 -60.5t95.5 -85t39 -143.5q0 -119 -73.5 -204t-217.5 -103l-8 -221h-86l-12 217q-98 6 -164 39.5t-100.5 69.5t-34.5 42z" />
<glyph unicode="%" horiz-adv-x="1642" d="M98 971q0 176 86 281.5t236 105.5q147 0 234 -106.5t87 -280.5q0 -176 -86 -280.5t-235 -104.5q-154 0 -238 104.5t-84 280.5zM221 973q0 -145 51.5 -223t145.5 -78q96 0 148 78.5t52 222.5q0 145 -52 222t-146 77q-96 0 -147.5 -77t-51.5 -222zM483 25l576 1288l88 -21 l-576 -1288zM903 356q0 176 86 281.5t236 105.5q147 0 234 -106.5t87 -280.5q0 -176 -86 -280.5t-235 -104.5q-154 0 -238 104.5t-84 280.5zM1026 358q0 -145 51 -223t146 -78q96 0 148 79t52 222q0 145 -52 222t-146 77q-96 0 -147.5 -76.5t-51.5 -222.5z" />
<glyph unicode="&#x26;" horiz-adv-x="1234" d="M98 358q0 129 76 212t186 118q-84 41 -139 119t-55 194q0 158 97 253.5t265 95.5q63 0 121 -14.5t93.5 -30t43.5 -19.5l-16 -88q-8 4 -35.5 18.5t-75 27.5t-100.5 13q-117 0 -179.5 -70.5t-62.5 -195.5q0 -129 60.5 -195.5t138.5 -66.5h252l68 295h67v-295h264v-88h-264 v-358q0 -123 31 -166t102 -43q37 0 68 6t49 12t23 8l4 -82q-4 -4 -24.5 -13t-62.5 -17t-102 -8q-80 0 -129 27.5t-74 92.5q-96 -121 -280 -120q-209 0 -309.5 104t-100.5 274zM254 360q0 -287 276 -286q99 0 154 42t82 95q-2 18 -2 63v367h-275q-94 -4 -164.5 -78 t-70.5 -203z" />
<glyph unicode="'" horiz-adv-x="323" d="M70 1536l137 -4l-45 -471h-84z" />
<glyph unicode="(" horiz-adv-x="628" d="M174 557q0 281 65.5 488.5t146.5 335.5t81 110l78 -43q0 16 -63.5 -106.5t-114 -321.5t-50.5 -463q0 -266 50.5 -461.5t114 -315.5t63.5 -104l-74 -43q0 -18 -83 107t-148.5 330.5t-65.5 486.5z" />
<glyph unicode=")" horiz-adv-x="628" d="M82 -324q0 -16 63.5 108t113.5 322.5t50 460.5t-50 459t-113.5 317.5t-63.5 104.5l76 43q0 18 82 -106.5t147.5 -330.5t65.5 -487t-65.5 -488.5t-147.5 -335.5t-82 -110z" />
<glyph unicode="*" horiz-adv-x="804" d="M39 1079l43 144l293 -162l-41 381h137l-45 -381l297 162l41 -144l-322 -73l228 -281l-113 -90l-156 332l-155 -332l-111 90l225 279z" />
<glyph unicode="+" horiz-adv-x="835" d="M70 520v96h305v357h90v-357h299v-96h-299v-356h-90v356h-305z" />
<glyph unicode="," horiz-adv-x="462" d="M92 -285q63 59 102 150.5t37 167.5h-6q-33 0 -59 22q-25 25 -25 64q0 37 25 63q23 20 57 21q37 0 60 -21l10 -14q23 -33 22 -98q0 -98 -51 -217t-129 -183z" />
<glyph unicode="-" horiz-adv-x="608" d="M70 520v96h469v-96h-469z" />
<glyph unicode="." horiz-adv-x="497" d="M154 76q0 43 28 69q29 25 64 25q39 0 65 -25q27 -27 27 -69q0 -43 -27 -70q-29 -25 -65 -24q-35 -1 -64 24q-29 27 -28 70z" />
<glyph unicode="/" horiz-adv-x="854" d="M2 -512l768 2048h113l-766 -2048h-115z" />
<glyph unicode="0" horiz-adv-x="1150" d="M115 664q0 326 115.5 506t344.5 180t345 -180.5t116 -505.5q0 -326 -115.5 -505t-345.5 -179q-229 0 -344.5 179t-115.5 505zM279 664q0 -307 72.5 -448.5t223.5 -141.5q152 0 224.5 142t72.5 448q0 305 -73.5 448t-223.5 143q-152 0 -224 -143t-72 -448z" />
<glyph unicode="1" horiz-adv-x="755" d="M102 1155l306 176h122v-1331h-147v1212l-246 -137z" />
<glyph unicode="2" horiz-adv-x="972" d="M88 0v123q47 18 195.5 159.5t271.5 327t123 357.5q0 145 -58.5 213.5t-199.5 68.5q-68 0 -132.5 -24.5t-111.5 -55t-47 -32.5l-16 92q0 4 50 35.5t123.5 58.5t155.5 27q205 0 302.5 -99.5t97.5 -271.5q0 -221 -184.5 -443.5t-407.5 -396.5h629v-139h-791z" />
<glyph unicode="3" horiz-adv-x="972" d="M80 125l49 80q0 -4 40 -37t105.5 -61.5t147.5 -28.5q145 0 220 80t75 231q0 135 -62.5 209t-183.5 74q-31 0 -57.5 -10.5t-42 -20.5t-19.5 -14l-53 61l377 502h-535l9 141h669v-96l-368 -481q25 6 55 6q164 0 265 -101.5t101 -269.5q0 -127 -56 -219t-154.5 -141 t-223.5 -49q-110 0 -190 32.5t-124 69.5t-44 43z" />
<glyph unicode="4" horiz-adv-x="1007" d="M61 414q84 166 177.5 425t156.5 511l142 -19q-61 -236 -158.5 -471t-202.5 -432h469l35 709h117v-709h145v-82l-145 -10v-336h-152v336h-573z" />
<glyph unicode="5" horiz-adv-x="952" d="M53 123l53 76q0 -4 36 -36t97.5 -58.5t143.5 -26.5q150 0 236 89t86 251q0 143 -78 227t-207 84q-63 0 -111.5 -19.5t-64.5 -37.5l-2 -6l-62 8l62 657h557l-6 -143h-474l-34 -400q72 27 147 27q193 0 310.5 -106.5t117.5 -288.5q0 -135 -63.5 -235.5t-170 -152.5 t-235.5 -52q-104 0 -179 31.5t-117 68.5t-42 43z" />
<glyph unicode="6" horiz-adv-x="1058" d="M115 512q0 82 6 150q20 346 137 517t309 171q63 0 122 -15.5t94.5 -32t45.5 -22.5l-20 -90q-8 6 -41 21.5t-84 29.5t-104 14q-299 0 -318 -542q123 127 297 127q186 0 294 -113t108 -301q0 -125 -46.5 -226.5t-139.5 -160.5t-226 -59q-209 0 -321.5 137t-112.5 395z M270 465q0 -395 279 -395q133 0 194.5 99t61.5 259q0 147 -65.5 237.5t-198.5 90.5q-96 0 -160 -46t-102 -104l2 -2q-4 -23 -7.5 -61.5t-3.5 -77.5z" />
<glyph unicode="7" horiz-adv-x="862" d="M84 1184v147h739v-123q-135 -252 -259 -589.5t-179 -618.5h-162q100 463 473 1184h-612z" />
<glyph unicode="8" horiz-adv-x="1028" d="M98 348q0 135 79 215t192 117q-100 31 -172 108.5t-72 221.5q0 160 104.5 250t284.5 90t285.5 -91.5t105.5 -254.5q0 -135 -72.5 -211t-177.5 -111q113 -31 195 -108.5t82 -229.5q0 -186 -110.5 -275t-307.5 -89t-306.5 90t-109.5 278zM262 352q0 -147 65.5 -218 t186.5 -71t186.5 71t65.5 216q0 156 -83 218.5t-175 72.5q-88 -10 -167 -72.5t-79 -216.5zM283 1004q0 -154 73.5 -215.5t159.5 -71.5q82 8 155.5 68.5t73.5 213.5q0 266 -231 267q-231 0 -231 -262z" />
<glyph unicode="9" horiz-adv-x="1058" d="M98 883q0 125 49.5 231.5t145.5 171t229 64.5q207 0 314.5 -137.5t107.5 -395.5q0 -98 -4 -143q-8 -227 -70.5 -383t-165 -233.5t-231.5 -77.5q-88 0 -150.5 21.5t-95 47t-32.5 29.5l38 88q0 -4 31 -27.5t83 -44t120 -20.5q143 0 231 132t97 398q-106 -139 -295 -139 q-184 0 -293 114.5t-109 303.5zM254 889q0 -150 66.5 -245t197.5 -95q111 0 177.5 56.5t84.5 117.5q6 55 6 141q0 199 -62 297.5t-202 98.5q-133 0 -200.5 -106.5t-67.5 -264.5z" />
<glyph unicode=":" horiz-adv-x="501" d="M154 76q0 43 28 69q29 25 64 25q39 0 65 -25q27 -27 27 -69q0 -43 -27 -70q-29 -25 -65 -24q-35 -1 -64 24q-29 27 -28 70zM154 852q0 43 28 70q27 25 64 24q37 0 65 -24q27 -27 27 -70t-27 -70q-29 -25 -65 -24q-37 -1 -64 24q-29 27 -28 70z" />
<glyph unicode=";" horiz-adv-x="497" d="M113 -285q63 59 102 150.5t37 167.5h-6q-33 0 -60 22q-25 25 -24 64q0 37 24 63q23 20 58 21q37 0 59 -21l10 -14q23 -33 23 -98q0 -98 -51.5 -217t-128.5 -183zM154 852q0 43 28 70q27 25 64 24q37 0 65 -24q27 -27 27 -70t-27 -70q-29 -25 -65 -24q-37 -1 -64 24 q-29 27 -28 70z" />
<glyph unicode="&#x3c;" horiz-adv-x="753" d="M125 651l491 408l52 -60l-402 -348l404 -350l-54 -59z" />
<glyph unicode="=" horiz-adv-x="962" d="M70 326v96h823v-96h-823zM70 715v96h823v-96h-823z" />
<glyph unicode="&#x3e;" horiz-adv-x="753" d="M86 301l397 350l-397 348l51 60l494 -408l-494 -409z" />
<glyph unicode="?" horiz-adv-x="841" d="M82 1444q0 4 42 32.5t111.5 53t159.5 24.5q121 0 202 -48t119 -125.5t38 -168.5q0 -96 -30 -163.5t-73 -109.5t-114 -97q-72 -53 -114 -95t-71.5 -109t-29.5 -163q0 -29 2 -45l-64 -6q-10 57 -10 123q0 86 22.5 144.5t56 96t91.5 86.5q57 49 89 85t54.5 93.5t22.5 139.5 q0 121 -55.5 194.5t-172.5 73.5q-74 0 -131 -23.5t-93 -50t-36 -30.5zM207 76q0 43 29 69q29 25 63 25q37 0 66 -25q27 -27 26 -69q0 -43 -26 -70q-29 -25 -66 -24q-34 -1 -63 24q-29 27 -29 70z" />
<glyph unicode="@" horiz-adv-x="1701" d="M115 385q0 430 205.5 671.5t592.5 241.5q332 0 509 -188t177 -528q0 -311 -100 -460t-254 -149q-76 0 -121 25t-59 86q-72 -113 -225 -113q-154 0 -246 104.5t-92 311.5q0 131 45 233.5t127 159t188 56.5q123 0 205 -82l29 53h65v-623q0 -78 24.5 -107.5t71.5 -29.5 q94 0 159 121t65 410q0 315 -143.5 475.5t-424.5 160.5q-317 0 -491 -206.5t-174 -622.5q0 -377 170 -570.5t471 -193.5q145 0 248.5 44t160 94.5t56.5 58.5l39 -74q0 -10 -58.5 -64.5t-170 -102.5t-275.5 -48q-377 0 -575.5 222t-198.5 634zM629 387q0 -340 239 -340 q76 0 122 43t67 94v471q-16 39 -58.5 73t-121.5 34q-123 0 -185.5 -98.5t-62.5 -276.5z" />
<glyph unicode="A" horiz-adv-x="1163" d="M47 0l449 1331h182l440 -1331h-162l-139 410h-522l-139 -410h-109zM324 494h467l-232 718z" />
<glyph unicode="B" horiz-adv-x="1110" d="M193 0v1331h335q201 0 310.5 -91t109.5 -241q0 -111 -55 -184.5t-137 -116.5q119 -33 187.5 -114.5t68.5 -206.5q0 -180 -120 -278.5t-362 -98.5h-337zM348 90h176q334 0 334 293q0 131 -71.5 196.5t-188.5 65.5h-250v-555zM348 729h242q43 0 91 24.5t83 83t35 152.5 q0 125 -76 188.5t-201 63.5h-174v-512z" />
<glyph unicode="C" horiz-adv-x="1167" d="M98 653q0 211 71 369t201 243t302 85q94 0 181 -25t148.5 -55.5t61.5 -32.5l-19 -98q0 2 -59 30.5t-138 53t-159 24.5q-199 0 -311.5 -150.5t-112.5 -439.5q0 -285 115 -430t321 -145q109 0 191 45t130 96t48 60l57 -66q0 -10 -53 -70.5t-152.5 -113.5t-238.5 -53 q-276 0 -430 179t-154 494z" />
<glyph unicode="D" horiz-adv-x="1298" d="M193 0v1331h405q287 0 445.5 -173t158.5 -496q0 -322 -156.5 -492t-447.5 -170h-405zM348 98h252q434 0 434 564q0 571 -436 571h-250v-1135z" />
<glyph unicode="E" d="M193 0v1331h716v-98h-561v-512h514v-94h-514v-529h606v-98h-761z" />
<glyph unicode="F" horiz-adv-x="950" d="M193 0v1331h731v-98h-576v-531h496v-94h-496v-608h-155z" />
<glyph unicode="G" horiz-adv-x="1269" d="M98 662q0 326 156 507t440 181q94 0 181.5 -25t148.5 -55.5t61 -32.5l-18 -98q0 2 -59.5 30.5t-138 53t-158.5 24.5q-227 0 -337 -146.5t-110 -438.5q0 -287 106.5 -433.5t297.5 -146.5q154 0 223.5 73.5t89.5 147.5v301h-272v88h403v-692h-76l-39 145 q-49 -72 -135 -118.5t-217 -46.5q-260 0 -403.5 180t-143.5 502z" />
<glyph unicode="H" horiz-adv-x="1306" d="M193 0v1331h155v-598h608v598h156v-1331h-156v639h-608v-639h-155z" />
<glyph unicode="I" horiz-adv-x="542" d="M193 0v1331h155v-1331h-155z" />
<glyph unicode="J" horiz-adv-x="741" d="M12 66l41 79q0 -2 19.5 -19t56.5 -32.5t90 -15.5q86 0 138.5 66.5t52.5 246.5v940h153v-940q0 -229 -82 -320t-227 -91q-84 0 -137.5 19t-79 40.5t-25.5 26.5z" />
<glyph unicode="K" horiz-adv-x="1187" d="M193 0v1331h155v-725l162 144l448 581h125l-467 -594l531 -737h-195l-450 618l-154 -129v-489h-155z" />
<glyph unicode="L" horiz-adv-x="964" d="M193 0v1331h155v-1233h592v-98h-747z" />
<glyph unicode="M" horiz-adv-x="1710" d="M193 0l6 1331l4 -6l-2 6h190l469 -1141h2l469 1141h180l7 -1331h-152l-6 1141h-2l-461 -1141h-125l-463 1141l-4 -1141h-112z" />
<glyph unicode="N" horiz-adv-x="1333" d="M193 0v1331h161l680 -1098l-6 50v1048h113v-1331h-135l-709 1135h-2l10 -64v-1071h-112z" />
<glyph unicode="O" horiz-adv-x="1339" d="M98 664q0 211 67.5 365.5t195.5 237.5t307 83q178 0 307 -83t197.5 -238t68.5 -365q0 -211 -68.5 -366t-197.5 -236.5t-307 -81.5q-179 0 -307 81.5t-195.5 236.5t-67.5 366zM264 664q0 -287 103.5 -436.5t300.5 -149.5q196 0 301.5 149.5t105.5 436.5q0 285 -105.5 436 t-301.5 151q-195 0 -299.5 -151.5t-104.5 -435.5z" />
<glyph unicode="P" horiz-adv-x="1015" d="M193 0v1331h319q205 0 318.5 -106.5t113.5 -315.5q0 -156 -61.5 -255t-158.5 -143t-208 -44h-168v-467h-155zM348 553h146q286 0 286 348q0 174 -73.5 257t-210.5 83h-148v-688z" />
<glyph unicode="Q" horiz-adv-x="1339" d="M98 664q0 211 67.5 365.5t195.5 237.5t307 83q178 0 307 -82t197.5 -234.5t68.5 -363.5q0 -285 -123 -466t-344 -216q68 -100 144.5 -164t156.5 -64q33 0 68 13l10 -78q-49 -20 -109 -21q-120 0 -238 86t-190 222q-246 16 -382 197t-136 485zM264 664 q0 -285 104.5 -435.5t299.5 -150.5q196 0 301.5 150.5t105.5 435.5q0 283 -106.5 435t-300.5 152q-195 0 -299.5 -152.5t-104.5 -434.5z" />
<glyph unicode="R" horiz-adv-x="1103" d="M193 0v1331h321q203 0 317.5 -105.5t114.5 -301.5q0 -158 -67.5 -258.5t-178.5 -143.5l334 -522h-178l-305 494h-203v-494h-155zM348 586h166q133 0 200.5 75.5t67.5 256.5q0 323 -284 323h-2h-148v-655z" />
<glyph unicode="S" horiz-adv-x="1003" d="M90 154l51 79q0 -6 39 -46t114 -73.5t183 -33.5q129 0 203 74.5t74 185.5q0 76 -37 127t-91.5 82t-146.5 69q-106 43 -171.5 82t-110.5 108t-45 175q0 168 106.5 267.5t284.5 99.5q88 0 158.5 -26t113.5 -55.5t43 -33.5l-20 -90q0 4 -41 32.5t-104.5 53t-141.5 24.5 q-115 0 -180.5 -63.5t-65.5 -171.5q0 -76 36 -126t90 -81t144 -68q109 -45 174.5 -84.5t111.5 -111.5t46 -184q0 -113 -52 -200t-148.5 -136t-223.5 -49q-133 0 -221 38.5t-130 82.5t-42 53z" />
<glyph unicode="T" horiz-adv-x="944" d="M14 1233v98h916v-98h-381v-1233h-156v1233h-379z" />
<glyph unicode="U" horiz-adv-x="1269" d="M176 434v897h154v-862q0 -186 82 -285.5t239 -99.5q164 0 247 101.5t83 283.5v862h113v-897q0 -209 -115 -331.5t-344 -122.5q-223 0 -341 122.5t-118 331.5z" />
<glyph unicode="V" horiz-adv-x="1122" d="M31 1331h162l387 -1216l393 1216h114l-442 -1331h-180z" />
<glyph unicode="W" horiz-adv-x="1736" d="M31 1331h164l303 -1153l325 1153h138l331 -1151l295 1151h115l-359 -1331h-143l-332 1135l-327 -1135h-144z" />
<glyph unicode="X" horiz-adv-x="1107" d="M37 0l426 662l-410 669h189l329 -557l344 557h129l-407 -645l434 -686h-190l-351 571h-2l-354 -571h-137z" />
<glyph unicode="Y" d="M4 1331h174l367 -655l364 655h125l-434 -770v-561h-156v551z" />
<glyph unicode="Z" horiz-adv-x="1079" d="M82 0v82l721 1151h-703v98h893v-84l-723 -1149h723v-98h-911z" />
<glyph unicode="[" horiz-adv-x="684" d="M180 -156v1592h482v-90h-351v-1409h351v-93h-482z" />
<glyph unicode="\" horiz-adv-x="854" d="M-29 1536h113l768 -2048h-113z" />
<glyph unicode="]" horiz-adv-x="684" d="M23 -63h350v1409h-350v90h483v-1592h-483v93z" />
<glyph unicode="^" horiz-adv-x="688" d="M70 1065l272 342l276 -342l-51 -53l-223 264l-227 -264z" />
<glyph unicode="_" horiz-adv-x="1277" d="M70 -203h1138v-96h-1138v96z" />
<glyph unicode="`" horiz-adv-x="423" d="M-20 1450l126 33l170 -293l-81 -16z" />
<glyph unicode="a" horiz-adv-x="976" d="M66 231q0 301 579 363v108q0 145 -47 198.5t-166 53.5q-53 0 -108.5 -19.5t-93 -41t-48.5 -27.5l-16 84q10 8 52 31t106.5 43t130.5 20q176 0 258 -73.5t82 -259.5v-502q0 -82 15 -110.5t38 -28.5q18 0 45 7t35 11l6 -70q-16 -6 -69.5 -22t-90.5 -16q-53 0 -81.5 33.5 t-35.5 119.5h-2q0 -8 -32.5 -47t-97 -72.5t-160.5 -33.5q-136 0 -217.5 66.5t-81.5 184.5zM219 250q0 -88 51.5 -134t139.5 -46q73 0 126.5 32.5t81 71.5t27.5 45v299q-186 -20 -306 -79.5t-120 -188.5z" />
<glyph unicode="b" horiz-adv-x="1056" d="M154 0v1532l149 8v-633h2q0 6 30 42t90 67t153 31q182 0 292.5 -134.5t110.5 -371.5q0 -258 -108.5 -411t-313.5 -153q-106 0 -171.5 34t-98.5 69l-29 -80h-106zM303 168q14 -27 69.5 -59.5t147.5 -32.5q158 0 230.5 115.5t72.5 345.5q0 213 -73.5 312t-214.5 99 q-102 0 -157.5 -53t-74.5 -94v-633z" />
<glyph unicode="c" horiz-adv-x="866" d="M76 502q0 262 113.5 402t332.5 140q72 0 135.5 -19t107.5 -43t44 -26l-18 -84q-8 6 -44 26t-92.5 38t-115.5 18q-158 0 -232 -104.5t-74 -345.5q0 -233 78 -333.5t219 -100.5q80 0 136.5 28.5t87 60t30.5 38.5l66 -43q0 -8 -37 -52.5t-110.5 -83t-184.5 -38.5 q-213 0 -327.5 131t-114.5 391z" />
<glyph unicode="d" horiz-adv-x="1056" d="M76 483q0 256 109.5 408.5t308.5 152.5q84 0 141 -21.5t88 -47t31 -29.5h2v586l147 8v-1540h-127l-16 121q-23 -45 -88.5 -93t-184.5 -48q-186 0 -298.5 133t-112.5 370zM233 487q0 -215 73 -311t214 -96q74 0 127 31.5t81 68.5t28 43v629q0 4 -28 28.5t-76 45t-113 20.5 q-158 0 -232 -115.5t-74 -343.5z" />
<glyph unicode="e" horiz-adv-x="927" d="M76 492q0 258 112.5 405t307.5 147q176 0 271 -121.5t95 -344.5q0 -39 -4 -64t-6 -31h-621q0 -413 298 -413h1q82 0 140.5 29.5t91.5 63.5t33 40l59 -49q0 -8 -39 -52.5t-114.5 -83t-186.5 -38.5q-205 0 -321.5 128t-116.5 384zM233 569h490l2 39q0 348 -229 348 q-121 0 -186.5 -95t-76.5 -292z" />
<glyph unicode="f" horiz-adv-x="641" d="M88 924v86l107 12v147q0 199 61 292t207 93q49 0 92 -13t69.5 -27.5t32.5 -18.5l-20 -80q-6 4 -26.5 15.5t-53.5 21.5t-68 10q-55 0 -85.5 -26.5t-46 -94t-15.5 -188.5v-129h297v-100h-297v-924h-147v924h-107z" />
<glyph unicode="g" horiz-adv-x="923" d="M41 -199q0 106 48 172t122 97q-37 43 -37 120q0 100 94 172q-82 43 -127 124t-45 196q0 186 105.5 274t271.5 88q80 0 141 -20l265 -2v-80l-131 -4q81 -91 81 -252q0 -180 -95 -274.5t-263 -94.5q-70 0 -125 15q-72 -47 -72 -107q0 -55 45.5 -76.5t145.5 -21.5 q448 0 448 -314q0 -169 -111.5 -257t-318.5 -88q-217 0 -329.5 85t-112.5 248zM158 -197q0 -123 85 -183t240 -60q144 0 221.5 58t77.5 169q0 215 -333 215q-96 0 -154 16q-61 -25 -99 -79t-38 -136zM240 682q0 -139 59 -211t168 -72q217 0 217 285q0 147 -57.5 209.5 t-161.5 62.5t-164.5 -61t-60.5 -213z" />
<glyph unicode="h" horiz-adv-x="1048" d="M152 0v1532l149 8v-608h2l25 28q26 27 102 55.5t166 28.5q150 0 230.5 -82.5t80.5 -246.5v-715h-147v696q0 240 -213 240q-74 0 -129.5 -22.5t-86 -49t-30.5 -30.5v-834h-149z" />
<glyph unicode="i" horiz-adv-x="454" d="M141 1319q0 39 27 65q23 23 59 23q39 0 62 -21q24 -26 24 -64q0 -40 -24 -69q-28 -22 -59 -22h-2.5h-3.5q-34 0 -56 22q-27 27 -27 66zM152 0v1024h149v-1024h-149z" />
<glyph unicode="j" horiz-adv-x="491" d="M-100 -487l28 84q2 -2 15.5 -10.5t36 -15.5t51.5 -7q80 0 118.5 82t38.5 270v1108h150v-1108q0 -448 -288 -448h-1q-49 0 -82 10t-48 20t-19 15zM178 1319q0 39 27 65q23 23 59 23q39 0 62 -21q24 -26 24 -64q0 -40 -24 -69q-28 -22 -59 -22h-3.5h-2.5q-34 0 -56 22 q-27 27 -27 66z" />
<glyph unicode="k" horiz-adv-x="933" d="M152 0v1532l149 8v-985l125 86l305 383h113l-338 -420l381 -604h-170l-326 516l-90 -55v-461h-149z" />
<glyph unicode="l" horiz-adv-x="456" d="M154 0v1532l147 8v-1540h-147z" />
<glyph unicode="m" horiz-adv-x="1484" d="M154 0v1024h122l19 -109q35 41 106.5 85t182.5 44q84 0 136 -29.5t79 -94.5q33 39 108.5 81.5t190.5 42.5q129 0 188.5 -67.5t59.5 -224.5v-752h-150v735q0 119 -37 161t-117 42q-84 0 -140 -38t-83 -75q4 -45 4 -71v-754h-149v735q0 117 -36 160t-114 43q-86 0 -144 -39 t-79 -72v-827h-147z" />
<glyph unicode="n" horiz-adv-x="1048" d="M154 0v1024h122l19 -98q33 39 102.5 78.5t200.5 39.5q147 0 229 -82.5t82 -246.5v-715h-149v684q0 131 -53.5 191.5t-157.5 60.5q-74 0 -129 -22.5t-87 -49t-32 -30.5v-834h-147z" />
<glyph unicode="o" horiz-adv-x="1026" d="M76 512q0 254 111.5 393t324.5 139t324.5 -139t111.5 -393q0 -252 -113.5 -392t-322.5 -140q-213 0 -324.5 139t-111.5 393zM233 512q0 -223 68 -332.5t211 -109.5t211 109.5t68 332.5q0 221 -68 331.5t-211 110.5t-211 -109.5t-68 -332.5z" />
<glyph unicode="p" horiz-adv-x="1056" d="M154 -516v1540h122l19 -123q29 45 98.5 94t192.5 49q180 0 287.5 -133t107.5 -370q0 -258 -108.5 -409.5t-307.5 -151.5q-84 0 -142 21.5t-89 47t-31 29.5h-2v-590zM301 168q23 -29 75 -59.5t140 -30.5q160 0 233.5 113.5t73.5 345.5q0 215 -73.5 311t-212.5 96 q-74 0 -127.5 -30.5t-81 -66.5t-27.5 -42v-637z" />
<glyph unicode="q" horiz-adv-x="1056" d="M78 483q0 256 111.5 408.5t312.5 152.5q100 0 163.5 -30.5t96.5 -63.5l35 74h106v-1536l-149 -4v639h-2q0 -6 -29 -43t-89.5 -68.5t-152.5 -31.5q-182 0 -292.5 133t-110.5 370zM233 487q0 -217 76 -312t217 -95q76 0 126 30.5t76 66.5t26 42v639q-27 31 -78 59.5 t-133 28.5q-158 0 -234 -112.5t-76 -346.5z" />
<glyph unicode="r" horiz-adv-x="673" d="M152 0v1024h110l23 -211q0 12 23.5 70.5t72.5 109.5t127 51q39 0 88 -13t63 -19l-14 -113q-14 6 -64.5 18.5t-88.5 12.5q-59 0 -101.5 -40t-63 -85t-26.5 -68v-737h-149z" />
<glyph unicode="s" horiz-adv-x="835" d="M74 131l51 72q0 -4 32.5 -39t90 -64.5t135.5 -29.5q115 0 173 57t58 139q0 59 -29.5 98t-73.5 60.5t-122 48.5q-90 33 -143 60.5t-91 83t-38 143.5q0 131 95 207.5t245 76.5q66 0 126 -17t97 -36.5t47 -25.5l-25 -88q-8 6 -40.5 25.5t-85 37.5t-107.5 18 q-94 0 -152.5 -47t-58.5 -118q0 -59 30.5 -99.5t77 -63t123.5 -50.5q90 -31 146.5 -61t95.5 -85t39 -143q0 -133 -92 -222t-270 -89q-109 0 -183.5 33.5t-112.5 72.5t-38 45z" />
<glyph unicode="t" horiz-adv-x="667" d="M82 924v86l106 12l56 326h94v-324h262v-100h-262v-613q0 -133 25.5 -183t89.5 -50q51 0 92 10t41 12l10 -82q-4 -4 -25.5 -13t-63.5 -17t-101 -8q-111 0 -164.5 68.5t-53.5 225.5v650h-106z" />
<glyph unicode="u" horiz-adv-x="1048" d="M139 309v715h150v-684q0 -252 213 -252q74 0 127 23.5t84.5 50t31.5 31.5v831h150v-1024h-125l-20 98q-27 -37 -98.5 -77.5t-198.5 -40.5q-150 0 -232 82.5t-82 246.5z" />
<glyph unicode="v" horiz-adv-x="890" d="M27 1024h176l266 -862l283 862h112l-352 -1024h-135z" />
<glyph unicode="w" horiz-adv-x="1345" d="M29 1024h166l192 -836l244 836h117l256 -836l200 836h115l-277 -1024h-131l-239 825l-242 -825h-133z" />
<glyph unicode="x" horiz-adv-x="907" d="M25 0l340 510l-324 514h176l252 -428l264 428h121l-317 -489l344 -535h-174l-275 442l-285 -442h-122z" />
<glyph unicode="y" horiz-adv-x="919" d="M31 1024h176l303 -856l274 856h109l-354 -1040q-88 -252 -173 -384t-210 -132q-37 0 -63.5 6t-41 12t-18.5 8l16 94q6 -4 30.5 -11t53.5 -7q94 0 157.5 101.5t141.5 316.5z" />
<glyph unicode="z" horiz-adv-x="849" d="M72 0v82l524 850h-479l-6 92h657v-82l-520 -850h516l4 -92h-696z" />
<glyph unicode="{" horiz-adv-x="768" d="M201 549v98q39 0 84 23.5t75.5 65.5t30.5 93q0 70 -26 195q-29 143 -29 219q0 143 80 216t280 73v-88q-127 0 -180 -53.5t-53 -157.5q0 -57 12 -126t14 -83q29 -143 29 -211q0 -74 -43 -129t-117 -86q74 -31 117 -86t43 -129q0 -68 -29 -211q-2 -14 -14 -83t-12 -126 q0 -104 53 -157.5t180 -53.5v-88q-200 0 -280 73t-80 216q0 76 29 219q27 125 26 195q0 51 -30.5 93t-75.5 65.5t-84 23.5z" />
<glyph unicode="|" horiz-adv-x="598" d="M248 -512v2048h102v-2048h-102z" />
<glyph unicode="}" horiz-adv-x="768" d="M123 -248q125 0 178 53.5t53 157.5q0 57 -12 126t-14 83q-29 143 -29 211q0 74 43 129t115 86q-72 31 -115 86t-43 129q0 68 29 211q2 14 14 83t12 126q0 104 -53 157.5t-178 53.5v88q201 0 280.5 -73t79.5 -216q0 -84 -30 -219q-2 -16 -14.5 -79.5t-12.5 -115.5 q0 -51 31.5 -93t77 -65.5t83.5 -23.5v-98q-39 0 -84 -23.5t-76.5 -65.5t-31.5 -93t12.5 -115t14.5 -80q31 -135 30 -219q0 -143 -79.5 -216t-280.5 -73v88z" />
<glyph unicode="~" horiz-adv-x="1173" d="M63 662q0 12 29 66t92.5 102.5t167.5 48.5q92 0 156.5 -29t146.5 -86q68 -49 119 -73.5t117 -24.5q59 0 95 22.5t52.5 47t16.5 30.5l57 -39q0 -12 -25.5 -63.5t-84 -97.5t-152.5 -46q-82 0 -141.5 27.5t-137.5 83.5q-72 51 -127 76.5t-127 25.5q-66 0 -107.5 -25.5 t-63 -54t-21.5 -35.5z" />
<glyph unicode="&#xa2;" horiz-adv-x="866" d="M76 639q0 240 95 378t280 161l8 256h86l12 -254q63 -4 119.5 -23.5t90.5 -38t42 -24.5l-18 -84q-8 6 -44 25.5t-92.5 38t-115.5 18.5q-158 0 -232 -104.5t-74 -346.5q0 -233 78 -333.5t219 -100.5q80 0 136.5 28.5t87 60.5t30.5 38l66 -43q0 -6 -33 -47t-97.5 -80 t-162.5 -47l-6 -219h-86l-12 223q-182 18 -279.5 148t-97.5 370z" />
<glyph unicode="&#xa3;" horiz-adv-x="1040" d="M94 0v137h78q66 47 92.5 122t26.5 181q0 68 -6 138l-191 6v88h180q-2 16 -12 118.5t-10 198.5q0 174 93 267.5t267 93.5q55 0 112.5 -16.5t97.5 -35t50 -24.5l-24 -88l-41 20.5t-78 30.5t-86 14q-115 0 -170 -63.5t-55 -206.5q0 -113 4 -309h457v-97h-457 q-4 -154 -26.5 -261t-78.5 -177h678v-137h-901z" />
<glyph unicode="&#xa5;" horiz-adv-x="1153" d="M59 1331h174l367 -655l365 655h125l-381 -676h227v-82h-274l-7 -12v-182h281v-82h-281v-297h-155v297h-301v82h301v172l-13 22h-288v82h241z" />
<glyph unicode="&#xa8;" horiz-adv-x="768" d="M78 1319q0 39 22 61q27 20 56 21q27 0 53 -21q23 -27 22 -61q0 -33 -22 -59q-27 -20 -53 -21q-29 1 -56 21q-23 23 -22 59zM393 1319q0 39 23 61q27 20 53 21q27 0 53 -21q25 -25 25 -61q0 -35 -25 -59q-27 -20 -53 -21q-26 1 -53 21q-23 23 -23 59z" />
<glyph unicode="&#xa9;" horiz-adv-x="1492" d="M150 662q0 213 71.5 369.5t204.5 241.5t317 85t319.5 -85t206 -242t70.5 -369q0 -213 -70.5 -369t-204.5 -239t-321 -83q-186 0 -319 84t-203.5 239t-70.5 368zM231 659q0 -291 136.5 -452.5t373.5 -161.5q242 0 380.5 162t138.5 452q0 195 -62.5 335.5t-179.5 215 t-277 74.5q-158 0 -272.5 -74.5t-176 -215t-61.5 -335.5zM449 649q0 172 89 270.5t234 98.5q53 0 96 -16.5t68 -33t31 -22.5l-21 -63q-6 6 -27.5 21.5t-57.5 29.5t-79 14q-106 0 -165.5 -75.5t-59.5 -223.5q0 -141 62.5 -216t164.5 -75q57 0 97.5 24t61 51.5t20.5 31.5 l38 -43q0 -8 -24.5 -42t-76.5 -63.5t-136 -29.5q-88 0 -160 43t-113.5 125t-41.5 194z" />
<glyph unicode="&#xab;" horiz-adv-x="991" d="M170 512l317 350l45 -53l-221 -299l221 -303l-47 -55zM502 512l317 350l45 -53l-221 -299l221 -303l-47 -55z" />
<glyph unicode="&#xad;" horiz-adv-x="608" d="M70 520v96h469v-96h-469z" />
<glyph unicode="&#xae;" horiz-adv-x="1263" d="M106 928q0 186 63.5 327.5t182.5 218t279 76.5t278.5 -76.5t183 -218t64.5 -327.5q0 -188 -62.5 -327.5t-181 -216.5t-282.5 -77t-283 77t-180.5 216t-61.5 328zM186 926q0 -256 117 -400.5t328 -144.5q209 0 327.5 145.5t118.5 399.5q0 256 -118.5 405.5t-327.5 149.5 t-327 -149.5t-118 -405.5zM463 602v649h170q231 0 231 -184q0 -76 -38 -124t-103 -66l135 -275h-88l-129 262h-98v-262h-80zM543 915h90q66 0 104.5 36t38.5 116q0 68 -34.5 98.5t-108.5 30.5h-90v-281z" />
<glyph unicode="&#xb4;" horiz-adv-x="423" d="M115 1180l157 297l129 -31l-208 -277z" />
<glyph unicode="&#xb8;" horiz-adv-x="479" d="M51 -428l37 41q4 -6 19.5 -21.5t46 -30t71.5 -14.5q135 0 135 140q0 61 -44 84.5t-86 31t-42 9.5l25 182h57l-14 -135q0 -2 52 -15.5t98.5 -52.5t46.5 -108q0 -92 -54.5 -144.5t-158.5 -52.5q-62 0 -104 19.5t-63.5 41t-21.5 25.5z" />
<glyph unicode="&#xbb;" horiz-adv-x="991" d="M125 205l221 297l-219 305l47 55l313 -362l-315 -348zM457 205l221 297l-219 305l47 55l313 -362l-315 -348z" />
<glyph unicode="&#x2c6;" horiz-adv-x="688" d="M78 1288l225 234h80l221 -234l-37 -65l-225 198l-225 -198z" />
<glyph unicode="&#x2da;" horiz-adv-x="837" d="M129 1319q0 90 51 141t131 51q78 0 130.5 -51t52.5 -141q0 -92 -50.5 -141.5t-132.5 -49.5t-132 49.5t-50 141.5zM186 1319q0 -70 35 -103.5t90 -33.5q56 0 89.5 33.5t33.5 103.5t-33.5 103.5t-89.5 33.5q-55 0 -90 -35t-35 -102z" />
<glyph unicode="&#x2dc;" horiz-adv-x="811" d="M78 1284q0 4 24.5 38t68.5 62.5t103 28.5q45 0 82 -12t90 -39q45 -23 76 -33t64 -10t56.5 12t34.5 25.5t13 17.5l47 -51q0 -4 -20.5 -30.5t-58 -50t-95.5 -23.5q-41 0 -79 13t-85 36q-49 23 -82.5 34t-68.5 11t-62.5 -17.5t-42 -37t-18.5 -25.5z" />
<glyph unicode="&#x400;" d="M193 0v1331h716v-98h-561v-512h514v-94h-514v-529h606v-98h-761zM433 1757l127 33l170 -293l-82 -16z" />
<glyph unicode="&#x401;" d="M193 0v1331h716v-98h-561v-512h514v-94h-514v-529h606v-98h-761zM346 1626q0 39 22 61q27 20 56 21q27 0 53 -21q23 -27 22 -61q0 -33 -22 -59q-27 -20 -53 -21q-29 1 -56 21q-23 23 -22 59zM661 1626q0 39 23 61q27 20 53 21q27 0 53 -21q25 -25 25 -61q0 -35 -25 -59 q-27 -20 -53 -21q-26 1 -53 21q-23 23 -23 59z" />
<glyph unicode="&#x402;" horiz-adv-x="1304" d="M14 1237v94h871v-94h-357v-569q12 16 55.5 51t119 67.5t171.5 32.5q172 0 246 -82t74 -254v-100q0 -227 -79 -315t-216 -88q-63 0 -107 17t-67 37.5t-23 24.5l29 68q4 -4 20.5 -19.5t46 -28.5t68.5 -13q168 0 174 266v121q0 102 -21.5 157.5t-69.5 78t-132 22.5 q-98 0 -173 -45t-116 -91v-575h-155v1237h-359z" />
<glyph unicode="&#x403;" horiz-adv-x="837" d="M193 0v1331h641v-98h-486v-1233h-155zM420 1487l157 297l129 -31l-208 -277z" />
<glyph unicode="&#x404;" horiz-adv-x="1177" d="M98 647q0 209 70 369t199 247t303 87q94 0 180 -25t146.5 -55.5t60.5 -32.5l-21 -98q0 2 -57 30.5t-135 53t-158 24.5q-193 0 -301.5 -138t-118.5 -409h670v-96h-670q8 -264 123 -393t316 -129q109 0 191.5 45t130.5 96t48 60l55 -66q0 -10 -53 -70.5t-152.5 -113.5 t-238.5 -53q-180 0 -313 78.5t-204 229t-71 359.5z" />
<glyph unicode="&#x405;" horiz-adv-x="1003" d="M90 154l51 79q0 -6 39 -46t114 -73.5t183 -33.5q129 0 203 74.5t74 185.5q0 76 -37 127t-91.5 82t-146.5 69q-106 43 -171.5 82t-110.5 108t-45 175q0 168 106.5 267.5t284.5 99.5q88 0 158.5 -26t113.5 -55.5t43 -33.5l-20 -90q0 4 -41 32.5t-104.5 53t-141.5 24.5 q-115 0 -180.5 -63.5t-65.5 -171.5q0 -76 36 -126t90 -81t144 -68q109 -45 174.5 -84.5t111.5 -111.5t46 -184q0 -113 -52 -200t-148.5 -136t-223.5 -49q-133 0 -221 38.5t-130 82.5t-42 53z" />
<glyph unicode="&#x406;" horiz-adv-x="542" d="M193 0v1331h155v-1331h-155z" />
<glyph unicode="&#x407;" horiz-adv-x="542" d="M37 1626q0 39 22 61q27 20 56 21q27 0 53 -21q23 -27 22 -61q0 -33 -22 -59q-27 -20 -53 -21q-29 1 -56 21q-23 23 -22 59zM193 0v1331h155v-1331h-155zM352 1626q0 39 23 61q27 20 53 21q27 0 53 -21q25 -25 25 -61q0 -35 -25 -59q-27 -20 -53 -21q-26 1 -53 21 q-23 23 -23 59z" />
<glyph unicode="&#x408;" horiz-adv-x="741" d="M12 66l41 79q0 -2 19.5 -19t56.5 -32.5t90 -15.5q86 0 138.5 66.5t52.5 246.5v940h153v-940q0 -229 -82 -320t-227 -91q-84 0 -137.5 19t-79 40.5t-25.5 26.5z" />
<glyph unicode="&#x409;" horiz-adv-x="1783" d="M43 -2l6 111q4 -2 18.5 -5.5t32.5 -3.5q289 0 289 1231h649v-536h158q233 0 361.5 -96.5t128.5 -286.5q0 -197 -122 -304.5t-360 -107.5h-321v1233h-387q-2 -610 -98.5 -928.5t-270.5 -318.5q-37 0 -58.5 5t-25.5 7zM1038 90h162q166 0 247 79t81 239q0 156 -85 228.5 t-247 72.5h-158v-619z" />
<glyph unicode="&#x40a;" horiz-adv-x="1855" d="M193 0v1331h155v-598h608v598h156v-536h158q233 0 361 -96.5t128 -286.5q0 -197 -121.5 -304.5t-359.5 -107.5h-322v639h-608v-639h-155zM1112 90h162q166 0 247 79t81 239q0 156 -85 228.5t-247 72.5h-158v-619z" />
<glyph unicode="&#x40b;" horiz-adv-x="1372" d="M14 1237v94h871v-94h-357v-569q12 16 55.5 51t119 67.5t171.5 32.5q172 0 247 -82t75 -254v-483h-156v453q0 102 -21.5 157.5t-69.5 78t-132 22.5q-98 0 -173 -45t-116 -91v-575h-155v1237h-359z" />
<glyph unicode="&#x40c;" horiz-adv-x="1228" d="M193 0v1331h155v-725l162 144l448 581h125l-467 -594l531 -737h-195l-450 618l-154 -129v-489h-155zM471 1487l157 297l129 -31l-208 -277z" />
<glyph unicode="&#x40d;" horiz-adv-x="1335" d="M193 0v1331h155v-1071l-10 -67h2l647 1116l10 22h146v-1331h-154v1061l8 76h-2l-645 -1114l-10 -23h-147zM519 1757l127 33l170 -293l-82 -16z" />
<glyph unicode="&#x40e;" horiz-adv-x="1165" d="M61 1331h181l430 -862l313 862h123l-381 -975q-82 -207 -176 -290.5t-217 -83.5q-49 0 -87 9t-58.5 18t-24.5 14l22 108q4 -4 22.5 -13t51.5 -17.5t74 -8.5q78 0 139.5 44t120.5 169zM395 1659l123 12v-10q0 -4 2 -16.5t10 -28.5q35 -80 154 -80q121 0 157 82 q6 16 8.5 27.5t2.5 15.5v10l123 -12q0 -16 -20.5 -64.5t-85 -93.5t-185.5 -45q-119 0 -183.5 45t-85 93t-20.5 65z" />
<glyph unicode="&#x40f;" horiz-adv-x="1275" d="M193 0v1331h155v-1233h578v1233h155v-1331h-374l-19 -432h-98l-23 432h-374z" />
<glyph unicode="&#x410;" horiz-adv-x="1163" d="M47 0l449 1331h182l440 -1331h-162l-139 410h-522l-139 -410h-109zM324 494h467l-232 718z" />
<glyph unicode="&#x411;" horiz-adv-x="1091" d="M193 0v1331h671v-98h-516v-438h154q236 0 364.5 -96.5t128.5 -286.5q0 -197 -122.5 -304.5t-360.5 -107.5h-319zM348 90h158q168 0 250 77t82 241q0 158 -85 229.5t-251 71.5h-154v-619z" />
<glyph unicode="&#x412;" horiz-adv-x="1110" d="M193 0v1331h335q201 0 310.5 -91t109.5 -241q0 -111 -55 -184.5t-137 -116.5q119 -33 187.5 -114.5t68.5 -206.5q0 -180 -120 -278.5t-362 -98.5h-337zM348 90h176q334 0 334 293q0 131 -71.5 196.5t-188.5 65.5h-250v-555zM348 729h242q43 0 91 24.5t83 83t35 152.5 q0 125 -76 188.5t-201 63.5h-174v-512z" />
<glyph unicode="&#x413;" horiz-adv-x="837" d="M193 0v1331h641v-98h-486v-1233h-155z" />
<glyph unicode="&#x414;" horiz-adv-x="1251" d="M68 98h110q86 172 129 451.5t43 781.5h678v-1233h156l-25 -444h-100l-23 346h-829l-37 -346h-92zM289 98h585v1135h-415q-4 -444 -47 -704.5t-123 -430.5z" />
<glyph unicode="&#x415;" d="M193 0v1331h716v-98h-561v-512h514v-94h-514v-529h606v-98h-761z" />
<glyph unicode="&#x416;" horiz-adv-x="1765" d="M86 0l399 725l-362 606h129l328 -565h198v565h154v-563h190l367 563h129l-395 -579l456 -752h-182l-393 670h-172v-670h-154v670h-172l-340 -670h-180z" />
<glyph unicode="&#x417;" horiz-adv-x="989" d="M41 188l57 72q0 -8 36 -54t109.5 -86t186.5 -40q139 0 216 75.5t77 217.5q0 264 -258 264l-191 -8v98l201 -8q49 2 98.5 34.5t82 96t32.5 151.5q0 252 -250 252q-70 0 -133 -21.5t-107 -47t-44 -27.5l-19 88q0 2 49 30t123 51.5t156 23.5q188 0 286.5 -90.5t98.5 -245.5 q0 -117 -62.5 -199t-152.5 -127q123 -27 191.5 -104.5t68.5 -214.5q0 -115 -54.5 -203t-155.5 -137t-237 -49q-147 0 -237 46t-129 98t-39 64z" />
<glyph unicode="&#x418;" horiz-adv-x="1335" d="M193 0v1331h155v-1071l-10 -67h2l647 1116l10 22h146v-1331h-154v1061l8 76h-2l-645 -1114l-10 -23h-147z" />
<glyph unicode="&#x419;" horiz-adv-x="1335" d="M193 0v1331h155v-1071l-10 -67h2l647 1116l10 22h146v-1331h-154v1061l8 76h-2l-645 -1114l-10 -23h-147zM377 1659l123 12v-10q0 -4 2 -16.5t10 -28.5q35 -80 154 -80q121 0 157 82q6 16 8.5 27.5t2.5 15.5v10l123 -12q0 -16 -20.5 -64.5t-85 -93.5t-185.5 -45 q-119 0 -183.5 45t-85 93t-20.5 65z" />
<glyph unicode="&#x41a;" horiz-adv-x="1228" d="M193 0v1331h155v-725l162 144l448 581h125l-467 -594l531 -737h-195l-450 618l-154 -129v-489h-155z" />
<glyph unicode="&#x41b;" horiz-adv-x="1232" d="M43 -2l6 111q4 -2 18.5 -5.5t32.5 -3.5q289 0 289 1231h649v-1331h-153v1233h-389q-2 -610 -98.5 -928.5t-270.5 -318.5q-37 0 -58.5 5t-25.5 7z" />
<glyph unicode="&#x41c;" horiz-adv-x="1710" d="M193 0l6 1331l4 -6l-2 6h190l469 -1141h2l469 1141h180l7 -1331h-152l-6 1141h-2l-461 -1141h-125l-463 1141l-4 -1141h-112z" />
<glyph unicode="&#x41d;" horiz-adv-x="1306" d="M193 0v1331h155v-598h608v598h156v-1331h-156v639h-608v-639h-155z" />
<glyph unicode="&#x41e;" horiz-adv-x="1339" d="M98 664q0 211 67.5 365.5t195.5 237.5t307 83q178 0 307 -83t197.5 -238t68.5 -365q0 -211 -68.5 -366t-197.5 -236.5t-307 -81.5q-179 0 -307 81.5t-195.5 236.5t-67.5 366zM264 664q0 -287 103.5 -436.5t300.5 -149.5q196 0 301.5 149.5t105.5 436.5q0 285 -105.5 436 t-301.5 151q-195 0 -299.5 -151.5t-104.5 -435.5z" />
<glyph unicode="&#x41f;" horiz-adv-x="1275" d="M193 0v1331h888v-1331h-155v1233h-578v-1233h-155z" />
<glyph unicode="&#x420;" horiz-adv-x="1015" d="M193 0v1331h319q205 0 318.5 -106.5t113.5 -315.5q0 -156 -61.5 -255t-158.5 -143t-208 -44h-168v-467h-155zM348 553h146q287 0 286 350q0 172 -73.5 255t-210.5 83h-148v-688z" />
<glyph unicode="&#x421;" horiz-adv-x="1167" d="M98 653q0 211 71 369t201 243t302 85q94 0 181 -25t148.5 -55.5t61.5 -32.5l-19 -98q0 2 -59 30.5t-138 53t-159 24.5q-199 0 -311.5 -150.5t-112.5 -439.5q0 -285 115 -430t321 -145q109 0 191 45t130 96t48 60l57 -66q0 -10 -53 -70.5t-152.5 -113.5t-238.5 -53 q-276 0 -430 179t-154 494z" />
<glyph unicode="&#x422;" horiz-adv-x="944" d="M14 1233v98h916v-98h-381v-1233h-156v1233h-379z" />
<glyph unicode="&#x423;" horiz-adv-x="1165" d="M61 1331h181l430 -862l313 862h123l-381 -975q-82 -207 -176 -290.5t-217 -83.5q-49 0 -87 9t-58.5 18t-24.5 14l22 108q4 -4 22.5 -13t51.5 -17.5t74 -8.5q78 0 139.5 44t120.5 169z" />
<glyph unicode="&#x424;" horiz-adv-x="1454" d="M72 664q0 252 152.5 377.5t424.5 129.5v160h154v-160q274 -4 426.5 -126.5t152.5 -374.5q0 -254 -152.5 -378t-426.5 -128v-164h-154v164q-274 4 -425.5 127t-151.5 373zM233 664q0 -213 102.5 -311.5t313.5 -102.5v837q-211 -4 -313.5 -105t-102.5 -318zM803 250 q211 4 314.5 104.5t103.5 315.5q0 213 -103.5 313t-314.5 104v-837z" />
<glyph unicode="&#x425;" horiz-adv-x="1107" d="M37 0l426 662l-410 669h189l329 -557l344 557h129l-407 -645l434 -686h-190l-351 571h-2l-354 -571h-137z" />
<glyph unicode="&#x426;" horiz-adv-x="1304" d="M193 0v1331h155v-1233h578v1233h155v-1233h154l-27 -444h-100l-23 346h-892z" />
<glyph unicode="&#x427;" horiz-adv-x="1157" d="M141 838v493h154v-471q0 -154 55.5 -218t175.5 -64q100 0 176 27.5t107 49.5v676h154v-1331h-154v563q0 -4 -45 -27.5t-120 -44t-173 -20.5q-330 0 -330 367z" />
<glyph unicode="&#x428;" horiz-adv-x="1744" d="M193 0v1331h155v-1233h447v1233h155v-1233h447v1233h153v-1331h-1357z" />
<glyph unicode="&#x429;" horiz-adv-x="1773" d="M193 0v1331h155v-1233h447v1233h155v-1233h447v1233h153v-1233h144l-25 -444h-100l-23 346h-1353z" />
<glyph unicode="&#x42a;" horiz-adv-x="1269" d="M14 1233v98h512v-536h158q233 0 361.5 -96.5t128.5 -286.5q0 -197 -122 -304.5t-360 -107.5h-321v1233h-357zM526 90h162q166 0 247 79t81 239q0 156 -85 228.5t-247 72.5h-158v-619z" />
<glyph unicode="&#x42b;" horiz-adv-x="1550" d="M193 0v1331h155v-536h158q233 0 361 -96.5t128 -286.5q0 -197 -121.5 -304.5t-359.5 -107.5h-321zM348 90h162q166 0 247 79t81 239q0 156 -85 228.5t-247 72.5h-158v-619zM1202 0v1331h156v-1331h-156z" />
<glyph unicode="&#x42c;" horiz-adv-x="1091" d="M193 0v1331h155v-536h158q233 0 361 -96.5t128 -286.5q0 -197 -121.5 -304.5t-359.5 -107.5h-321zM348 90h162q166 0 247 79t81 239q0 156 -85 228.5t-247 72.5h-158v-619z" />
<glyph unicode="&#x42d;" horiz-adv-x="1148" d="M27 176l53 84q0 -6 46 -52t127 -86t189 -40q193 0 310.5 136t128.5 405h-654v94h654q-6 279 -106.5 405.5t-307.5 126.5q-86 0 -156.5 -22.5t-115.5 -49t-45 -30.5l-19 92q0 4 51 32.5t130 53.5t173 25q279 0 423.5 -177.5t144.5 -500.5q0 -209 -73 -365.5t-205 -241.5 t-302 -85q-141 0 -240.5 44t-152.5 94t-53 58z" />
<glyph unicode="&#x42e;" horiz-adv-x="1841" d="M193 0v1331h155v-624h250q10 299 160.5 471t410.5 172q178 0 308.5 -83t199 -238t68.5 -365q0 -211 -68.5 -365t-198.5 -236.5t-309 -82.5q-258 0 -408.5 167.5t-162.5 464.5h-250v-612h-155zM762 664q0 -285 106.5 -437.5t300.5 -152.5q197 0 302.5 152.5t105.5 437.5 q0 283 -106.5 437t-301.5 154t-301 -154.5t-106 -436.5z" />
<glyph unicode="&#x42f;" horiz-adv-x="1120" d="M100 0l275 555q-113 35 -187.5 130t-74.5 243q0 129 54 220t142 137t189 46h426v-1331h-154v537h-264l-248 -537h-158zM266 934q0 -94 33 -163t88 -103.5t117 -34.5h266v608h-266q-57 0 -112.5 -36t-90.5 -105.5t-35 -165.5z" />
<glyph unicode="&#x430;" horiz-adv-x="976" d="M66 231q0 301 579 363v108q0 145 -47 198.5t-166 53.5q-53 0 -108.5 -19.5t-93 -41t-48.5 -27.5l-16 84q10 8 52 31t106.5 43t130.5 20q176 0 258 -73.5t82 -259.5v-502q0 -82 15 -110.5t38 -28.5q18 0 45 7t35 11l6 -70q-16 -6 -69.5 -22t-90.5 -16q-53 0 -81.5 33.5 t-35.5 119.5h-2q0 -8 -32.5 -47t-97 -72.5t-160.5 -33.5q-136 0 -217.5 66.5t-81.5 184.5zM219 250q0 -88 51.5 -134t139.5 -46q73 0 126.5 32.5t81 71.5t27.5 45v299q-186 -20 -306 -79.5t-120 -188.5z" />
<glyph unicode="&#x431;" horiz-adv-x="1034" d="M86 543q0 297 34 489.5t141.5 317.5t318.5 155l276 39l6 -147l-241 -29q-166 -18 -261.5 -92t-136.5 -206t-45 -339h10q14 68 55.5 139.5t117 122.5t186.5 51q199 0 305 -138t106 -390t-114.5 -394t-321.5 -142q-219 0 -327.5 149.5t-108.5 413.5zM244 541 q0 -240 67.5 -355.5t210.5 -115.5q144 0 211.5 111.5t67.5 334.5t-67.5 331.5t-211.5 108.5q-137 0 -207.5 -115.5t-70.5 -299.5z" />
<glyph unicode="&#x432;" horiz-adv-x="954" d="M154 0v1024h344q178 0 260 -71.5t82 -194.5q0 -90 -50.5 -143.5t-123.5 -82.5q92 -23 152.5 -84t60.5 -151q0 -137 -87 -217t-300 -80h-338zM301 82h188q133 0 185.5 61.5t52.5 161.5q0 84 -55.5 136.5t-163.5 52.5h-207v-412zM301 559h219q0 -4 48 10.5t86 56.5t38 122 q0 195 -196 194h-195v-383z" />
<glyph unicode="&#x433;" horiz-adv-x="720" d="M154 0v1024h530v-96h-383v-928h-147z" />
<glyph unicode="&#x434;" horiz-adv-x="1030" d="M10 94h129q72 172 97.5 386t25.5 544h590v-930h143l-14 -401h-84l-25 307h-739l-27 -307h-86zM252 94h450v836h-342q-2 -283 -24.5 -478.5t-83.5 -357.5z" />
<glyph unicode="&#x435;" horiz-adv-x="927" d="M76 492q0 258 112.5 405t307.5 147q176 0 271 -121.5t95 -344.5q0 -39 -4 -64t-6 -31h-621q0 -414 299 -413q82 0 140.5 29.5t91.5 63.5t33 40l59 -49q0 -8 -39 -52.5t-114.5 -83t-186.5 -38.5q-205 0 -321.5 128t-116.5 384zM233 569h490l2 39q0 348 -229 348 q-121 0 -186.5 -95t-76.5 -292z" />
<glyph unicode="&#x436;" horiz-adv-x="1368" d="M51 0l318 551l-285 473h119l256 -436l149 -2v438h150v-438l145 2l281 436h116l-303 -477l320 -547h-166l-274 496l-119 -2v-494h-150v496l-114 2l-279 -498h-164z" />
<glyph unicode="&#x437;" horiz-adv-x="851" d="M23 141l51 66q0 -8 29.5 -42t91 -64.5t159.5 -30.5q125 0 197 65.5t72 163.5q0 90 -57.5 140t-145.5 50l-178 -4v88l186 -4h6q49 6 101.5 49.5t52.5 145.5q0 88 -57.5 140t-170.5 52q-63 0 -119.5 -20.5t-95.5 -46t-39 -27.5l-18 86q0 2 46 27.5t110.5 47t134.5 21.5 q178 0 267 -71.5t89 -194.5q0 -168 -162 -237q90 -25 146.5 -87.5t56.5 -160.5q0 -139 -107.5 -226t-293.5 -87q-131 0 -209 35.5t-110.5 75.5t-32.5 50z" />
<glyph unicode="&#x438;" horiz-adv-x="1087" d="M154 0v1024h147v-817l500 817h133v-1024h-150v840l-516 -840h-114z" />
<glyph unicode="&#x439;" horiz-adv-x="1087" d="M154 0v1024h147v-817l500 817h133v-1024h-150v840l-516 -840h-114zM258 1382l123 13v-11q0 -4 3 -19t11 -32q43 -74 152 -73q121 0 155 79q8 16 10.5 28.5t2.5 16.5v11l123 -13q0 -16 -20.5 -64t-85 -93t-185.5 -45q-119 0 -183.5 45t-85 93t-20.5 64z" />
<glyph unicode="&#x43a;" horiz-adv-x="933" d="M154 0v1024h147v-469l127 70l295 399h104l-303 -420l365 -604h-172l-303 514l-113 -53v-461h-147z" />
<glyph unicode="&#x43b;" horiz-adv-x="980" d="M14 -16l6 100h11q125 0 189.5 236.5t64.5 703.5h542v-1024h-149v928h-289q-6 -457 -93 -701.5t-253 -244.5q-19 0 -29 2z" />
<glyph unicode="&#x43c;" horiz-adv-x="1327" d="M147 0l29 1024h182l306 -872l321 872h180l15 -1024h-138l-8 813l-2 59l-332 -872h-114l-324 872l-2 -22l-16 -850h-97z" />
<glyph unicode="&#x43d;" horiz-adv-x="1058" d="M154 0v1024h147v-451h457v451h149v-1024h-149v481h-457v-481h-147z" />
<glyph unicode="&#x43e;" horiz-adv-x="1026" d="M76 512q0 254 111.5 393t324.5 139t324.5 -139t111.5 -393q0 -252 -113.5 -392t-322.5 -140q-213 0 -324.5 139t-111.5 393zM233 512q0 -223 68 -332.5t211 -109.5t211 109.5t68 332.5q0 221 -68 331.5t-211 110.5t-211 -109.5t-68 -332.5z" />
<glyph unicode="&#x43f;" horiz-adv-x="1044" d="M154 0v1024h737v-1024h-148v928h-442v-928h-147z" />
<glyph unicode="&#x440;" horiz-adv-x="1056" d="M154 -516v1540h122l19 -123q29 45 98.5 94t192.5 49q180 0 287.5 -133t107.5 -370q0 -258 -108.5 -409.5t-307.5 -151.5q-84 0 -142 21.5t-89 47t-31 29.5h-2v-590zM301 168q23 -29 75 -59.5t140 -30.5q160 0 233.5 113.5t73.5 345.5q0 215 -73.5 311t-212.5 96 q-74 0 -127.5 -30.5t-81 -66.5t-27.5 -42v-637z" />
<glyph unicode="&#x441;" horiz-adv-x="866" d="M76 502q0 262 113.5 402t332.5 140q72 0 135.5 -19t107.5 -43t44 -26l-18 -84q-8 6 -44 26t-92.5 38t-115.5 18q-158 0 -232 -104.5t-74 -345.5q0 -233 78 -333.5t219 -100.5q80 0 136.5 28.5t87 60t30.5 38.5l66 -43q0 -8 -37 -52.5t-110.5 -83t-184.5 -38.5 q-213 0 -327.5 131t-114.5 391z" />
<glyph unicode="&#x442;" horiz-adv-x="839" d="M35 928v96h770l-2 -96h-309v-928h-148v928h-311z" />
<glyph unicode="&#x443;" horiz-adv-x="919" d="M31 1024h176l303 -856l274 856h109l-354 -1040q-88 -252 -173 -384t-210 -132q-37 0 -63.5 6t-41 12t-18.5 8l16 94q6 -4 30.5 -11t53.5 -7q94 0 157.5 101.5t141.5 316.5z" />
<glyph unicode="&#x444;" horiz-adv-x="1290" d="M76 512q0 254 127 393t358 139l8 -2v490l150 8v-496h8q231 0 359 -139t128 -393t-128 -393t-359 -139l-8 2v-494l-150 -4v496h-8q-231 0 -358 139t-127 393zM227 512q0 -229 84 -335.5t258 -106.5v884q-174 -2 -258 -107.5t-84 -334.5zM719 70q172 0 258 106.5t86 335.5 q0 227 -86 334.5t-258 109.5v-886z" />
<glyph unicode="&#x445;" horiz-adv-x="907" d="M25 0l340 510l-324 514h176l252 -428l264 428h121l-317 -489l344 -535h-174l-275 442l-285 -442h-122z" />
<glyph unicode="&#x446;" horiz-adv-x="1069" d="M154 0v1024h147v-928h442v928h148v-928h129l-14 -403h-95l-14 307h-743z" />
<glyph unicode="&#x447;" horiz-adv-x="948" d="M96 670v354h150v-350q0 -102 40 -151.5t126 -49.5q63 0 114.5 12.5t81 24.5t37.5 16v498h150v-1024h-150v451q-2 0 -32.5 -15.5t-102.5 -30t-150 -14.5q-264 0 -264 279z" />
<glyph unicode="&#x448;" horiz-adv-x="1472" d="M154 0v1024h147v-928h361v928h149v-928h358v928h150v-1024h-1165z" />
<glyph unicode="&#x449;" horiz-adv-x="1495" d="M154 0v1024h147v-928h361v928h149v-928h358v928h150v-928h129l-12 -403h-95l-16 307h-1171z" />
<glyph unicode="&#x44a;" horiz-adv-x="1097" d="M37 1024h432v-387h160q186 0 294.5 -72.5t108.5 -234.5q0 -330 -399 -330h-311v928h-283zM469 82h160q121 0 184.5 57.5t63.5 190.5q0 125 -71 176t-181 51h-156v-475z" />
<glyph unicode="&#x44b;" horiz-adv-x="1341" d="M154 0v1024h147v-387h160q186 0 294.5 -72.5t108.5 -234.5q0 -330 -399 -330h-311zM301 82h160q121 0 184.5 57.5t63.5 190.5q0 125 -71 176t-181 51h-156v-475zM1040 0v1024h150v-1024h-150z" />
<glyph unicode="&#x44c;" horiz-adv-x="929" d="M154 0v1024h147v-387h160q186 0 294.5 -72.5t108.5 -234.5q0 -330 -399 -330h-311zM301 82h160q121 0 184.5 57.5t63.5 190.5q0 125 -71 176t-181 51h-156v-475z" />
<glyph unicode="&#x44d;" horiz-adv-x="886" d="M35 127l47 63q0 -6 31.5 -36.5t90 -57t142.5 -26.5q297 0 318 403l-443 -2v98h443q-12 387 -302 387q-66 0 -124 -20.5t-100 -45t-42 -26.5l-18 86q0 2 48 28t114.5 46t136.5 20q201 0 317.5 -132t116.5 -369q0 -178 -57.5 -305t-159.5 -192.5t-234 -65.5 q-110 0 -182 32.5t-107.5 69.5t-35.5 45z" />
<glyph unicode="&#x44e;" horiz-adv-x="1384" d="M154 0v1024h147v-451h174q12 229 114.5 350t293.5 121q213 0 319.5 -138t106.5 -394q0 -258 -105.5 -395t-320.5 -137q-195 0 -298.5 129t-109.5 372h-174v-481h-147zM618 512q0 -221 61.5 -332.5t205.5 -111.5q145 0 208.5 111.5t63.5 332.5q0 225 -63.5 334.5 t-208.5 109.5q-143 0 -205 -109.5t-62 -334.5z" />
<glyph unicode="&#x44f;" horiz-adv-x="942" d="M84 719q0 152 98.5 228.5t286.5 76.5h319v-1024h-147v422h-205l-196 -422h-152l221 449q-98 33 -161.5 102.5t-63.5 167.5zM229 719q0 -104 69 -159.5t179 -55.5h164v438h-160q-252 0 -252 -223z" />
<glyph unicode="&#x450;" horiz-adv-x="927" d="M76 492q0 258 112.5 405t307.5 147q176 0 271 -121.5t95 -344.5q0 -39 -4 -64t-6 -31h-621q0 -414 299 -413q82 0 140.5 29.5t91.5 63.5t33 40l59 -49q0 -8 -39 -52.5t-114.5 -83t-186.5 -38.5q-205 0 -321.5 128t-116.5 384zM233 569h490l2 39q0 348 -229 348 q-121 0 -186.5 -95t-76.5 -292zM357 1450l127 33l170 -293l-82 -16z" />
<glyph unicode="&#x451;" horiz-adv-x="927" d="M76 492q0 258 112.5 405t307.5 147q176 0 271 -121.5t95 -344.5q0 -39 -4 -64t-6 -31h-621q0 -414 299 -413q82 0 140.5 29.5t91.5 63.5t33 40l59 -49q0 -8 -39 -52.5t-114.5 -83t-186.5 -38.5q-205 0 -321.5 128t-116.5 384zM233 569h490l2 39q0 348 -229 348 q-121 0 -186.5 -95t-76.5 -292zM271 1319q0 39 22 61q27 20 56 21q27 0 53 -21q23 -27 22 -61q0 -33 -22 -59q-27 -20 -53 -21q-29 1 -56 21q-23 23 -22 59zM586 1319q0 39 23 61q27 20 53 21q27 0 53 -21q25 -25 25 -61q0 -35 -25 -59q-27 -20 -53 -21q-26 1 -53 21 q-23 23 -23 59z" />
<glyph unicode="&#x452;" horiz-adv-x="1048" d="M47 1153v80l107 8v291l147 8v-297h361v-90h-361v-393h4l23 30q22 31 95 63t163 32q150 0 236.5 -87t86.5 -251v-625q0 -147 -42 -249.5t-108.5 -152.5t-140.5 -50q-63 -1 -114 32l28 95q33 -16 62 -17q68 0 116 78t50 242v616q0 131 -59.5 195.5t-163.5 64.5 q-102 0 -158.5 -42t-77.5 -75v-659h-147v1153h-107z" />
<glyph unicode="&#x453;" horiz-adv-x="720" d="M154 0v1024h530v-96h-383v-928h-147zM320 1180l157 297l129 -31l-208 -277z" />
<glyph unicode="&#x454;" horiz-adv-x="880" d="M76 508q0 256 111.5 396t322.5 140q74 0 138.5 -19t108.5 -43t44 -26l-19 -84q-8 6 -42.5 26t-91 38t-116.5 18q-154 0 -224 -92t-77 -311l441 4v-100h-441q10 -207 89 -296t215 -89q78 0 135 27.5t90 59t33 36.5l51 -58q0 -6 -39 -46t-113 -74.5t-182 -34.5 q-205 0 -319.5 134t-114.5 394z" />
<glyph unicode="&#x455;" horiz-adv-x="835" d="M74 131l51 72q0 -4 32.5 -39t90 -64.5t135.5 -29.5q115 0 173 57t58 139q0 59 -29.5 98t-73.5 60.5t-122 48.5q-90 33 -143 60.5t-91 83t-38 143.5q0 131 95 207.5t245 76.5q66 0 126 -17t97 -36.5t47 -25.5l-25 -88q-8 6 -40.5 25.5t-85 37.5t-107.5 18 q-94 0 -152.5 -47t-58.5 -118q0 -59 30.5 -99.5t77 -63t123.5 -50.5q90 -31 146.5 -61t95.5 -85t39 -143q0 -133 -92 -222t-270 -89q-109 0 -183.5 33.5t-112.5 72.5t-38 45z" />
<glyph unicode="&#x456;" horiz-adv-x="454" d="M141 1319q0 39 27 65q23 23 59 23q39 0 62 -21q25 -27 24 -67q0 -37 -24 -66q-29 -23 -62 -22q-36 -1 -59 22q-27 27 -27 66zM152 0v1024h149v-1024h-149z" />
<glyph unicode="&#x457;" horiz-adv-x="454" d="M-8 1319q0 39 22 61q27 20 56 21q27 0 53 -21q23 -27 22 -61q0 -33 -22 -59q-27 -20 -53 -21q-29 1 -56 21q-23 23 -22 59zM152 0v1024h149v-1024h-149zM307 1319q0 39 23 61q27 20 53 21q27 0 53 -21q25 -25 25 -61q0 -35 -25 -59q-27 -20 -53 -21q-26 1 -53 21 q-23 23 -23 59z" />
<glyph unicode="&#x458;" horiz-adv-x="491" d="M-100 -487l28 84q2 -2 15.5 -10.5t36 -15.5t51.5 -7q80 0 118.5 82t38.5 270v1108h150v-1108q0 -449 -289 -448q-49 0 -82 10t-48 20t-19 15zM178 1319q0 39 27 65q23 23 59 23q39 0 62 -21q25 -27 24 -67q0 -37 -24 -66q-29 -23 -62 -22q-36 -1 -59 22q-27 27 -27 66z " />
<glyph unicode="&#x459;" horiz-adv-x="1456" d="M14 -16l6 100h11q125 0 189.5 236.5t64.5 703.5h542v-387h160q186 0 295 -72.5t109 -234.5q0 -330 -400 -330h-313v928h-289q-6 -457 -93 -701.5t-253 -244.5q-19 0 -29 2zM827 82h160q121 0 184.5 57.5t63.5 190.5q0 125 -70.5 176t-181.5 51h-156v-475z" />
<glyph unicode="&#x45a;" horiz-adv-x="1533" d="M154 0v1024h147v-451h457v451h149v-387h158q186 0 294.5 -72.5t108.5 -234.5q0 -330 -399 -330h-311v481h-457v-481h-147zM907 82h158q121 0 184.5 57.5t63.5 190.5q0 125 -71 176t-181 51h-154v-475z" />
<glyph unicode="&#x45b;" horiz-adv-x="1046" d="M47 1153v80l107 8v291l147 8v-297h361v-90h-361v-393h4l23 30q22 31 95 63t163 32q150 0 236.5 -87t86.5 -251v-547h-149v516q0 131 -59.5 195.5t-165.5 64.5q-74 0 -125.5 -25.5t-80 -56t-28.5 -35.5v-659h-147v1153h-107z" />
<glyph unicode="&#x45c;" horiz-adv-x="933" d="M154 0v1024h147v-469l127 70l295 399h104l-303 -420l365 -604h-172l-303 514l-113 -53v-461h-147zM361 1180l157 297l129 -31l-208 -277z" />
<glyph unicode="&#x45d;" horiz-adv-x="1087" d="M154 0v1024h147v-817l500 817h133v-1024h-150v840l-516 -840h-114zM400 1450l127 33l170 -293l-82 -16z" />
<glyph unicode="&#x45e;" horiz-adv-x="919" d="M31 1024h176l303 -856l274 856h109l-354 -1040q-88 -252 -173 -384t-210 -132q-37 0 -63.5 6t-41 12t-18.5 8l16 94q6 -4 30.5 -11t53.5 -7q94 0 157.5 101.5t141.5 316.5zM192 1382l123 13v-11q0 -4 3 -19t11 -32q43 -74 152 -73q121 0 155 79q8 16 10.5 28.5t2.5 16.5 v11l123 -13q0 -16 -20.5 -64t-85 -93t-185.5 -45q-119 0 -183.5 45t-85 93t-20.5 64z" />
<glyph unicode="&#x45f;" horiz-adv-x="1079" d="M154 0v1024h147v-928h477v928h150v-1024h-324l-12 -307h-98l-15 307h-325z" />
<glyph unicode="&#x462;" horiz-adv-x="1202" d="M14 1073v103h289v155h156v-155h403v-103h-403v-278h174q231 0 352 -95.5t121 -287.5q0 -199 -113.5 -305.5t-349.5 -106.5h-340v1073h-289zM459 90h178q164 0 237.5 77t73.5 241q0 158 -76.5 228.5t-238.5 70.5h-174v-617z" />
<glyph unicode="&#x463;" horiz-adv-x="1071" d="M35 1024h258v201l149 8v-209h312v-84h-312v-303h160q184 0 294 -72.5t110 -234.5q0 -330 -400 -330h-313v928h-252zM442 82h158q121 0 184.5 57.5t63.5 190.5q0 125 -70.5 176t-181.5 51h-154v-475z" />
<glyph unicode="&#x46a;" horiz-adv-x="1464" d="M86 0v100q0 262 66.5 404.5t174 195t265.5 64.5l-381 567h1057l-394 -567q158 -12 264.5 -64.5t173 -195t66.5 -404.5v-100h-180v113q0 291 -107.5 427t-281.5 136v-676h-154v676q-211 0 -300 -119t-89 -389v-168h-180zM426 1251l328 -510l344 510h-672z" />
<glyph unicode="&#x46b;" horiz-adv-x="1216" d="M86 0v86q0 270 110.5 378.5t305.5 125.5l-297 434h819l-307 -434q129 -10 217 -52t142 -148.5t54 -303.5v-86h-147v86q0 236 -71.5 336t-229.5 100v-522h-147v522q-111 0 -176.5 -43t-95.5 -137t-30 -256v-86h-147zM371 963l254 -385l266 385h-520z" />
<glyph unicode="&#x472;" horiz-adv-x="1339" d="M98 664q0 211 67.5 365.5t195.5 237.5t307 83q178 0 307 -83t197.5 -238t68.5 -365q0 -211 -68.5 -366t-197.5 -236.5t-307 -81.5t-306.5 81.5t-196 236.5t-67.5 366zM264 625q8 -268 111.5 -407.5t292.5 -139.5q190 0 294.5 139t112.5 408h-811zM264 705h811 q-8 264 -113.5 405t-293.5 141q-187 0 -291.5 -141t-112.5 -405z" />
<glyph unicode="&#x473;" horiz-adv-x="1026" d="M76 512q0 254 111.5 393t324.5 139t324.5 -139t111.5 -393q0 -252 -113.5 -392t-322.5 -140q-213 0 -324.5 139t-111.5 393zM233 471q6 -203 74 -302t205 -99t204.5 99t74.5 302h-558zM233 551h558q-6 203 -74 303t-205 100t-204.5 -100t-74.5 -303z" />
<glyph unicode="&#x474;" horiz-adv-x="1122" d="M31 1331h162l387 -1216l229 852q53 195 116.5 289t176.5 94q45 0 90 -15l-12 -110q-27 10 -56 10q-76 0 -124 -78t-87 -213l-268 -944h-180z" />
<glyph unicode="&#x475;" horiz-adv-x="911" d="M27 1024h176l266 -862l195 657q35 117 83 169t125 52q39 0 80 -14l-8 -84q-25 8 -51 8q-45 0 -75 -35.5t-54 -113.5l-252 -801h-135z" />
<glyph unicode="&#x48a;" horiz-adv-x="1376" d="M193 0v1331h155v-1071l-10 -67h2l647 1116l10 22h146v-1233h164v-28l-162 -416h-92l73 346h-137v1061l8 76h-2l-645 -1114l-10 -23h-147z" />
<glyph unicode="&#x48b;" horiz-adv-x="1122" d="M154 0v1024h147v-817l500 817h133v-928h139v-26l-151 -377h-86l84 307h-136v840l-516 -840h-114z" />
<glyph unicode="&#x48c;" horiz-adv-x="1118" d="M14 1044v99h205v188h156v-188h205v-99h-205v-249h157q233 0 361.5 -96.5t128.5 -286.5q0 -197 -122 -304.5t-359 -107.5h-322v1044h-205zM375 90h162q166 0 246.5 79t80.5 239q0 156 -85 228.5t-247 72.5h-157v-619z" />
<glyph unicode="&#x48d;" horiz-adv-x="964" d="M20 928v82l168 8v514l148 8v-516h196v-96h-196v-291h160q186 0 294.5 -72.5t108.5 -234.5q0 -330 -399 -330h-312v928h-168zM336 82h160q121 0 184 57.5t63 190.5q0 125 -70.5 176t-180.5 51h-156v-475z" />
<glyph unicode="&#x48e;" horiz-adv-x="1015" d="M193 0v1331h319q205 0 318.5 -106.5t113.5 -315.5q0 -262 -176 -374l119 -175l-76 -53l-129 187q-78 -27 -166 -27h-168v-467h-155zM348 553h146q74 0 131 25l-117 174l76 51l116 -172q80 90 80 272q0 172 -73.5 255t-210.5 83h-148v-688z" />
<glyph unicode="&#x48f;" horiz-adv-x="1056" d="M154 -516v1540h122l19 -123q29 45 98.5 94t192.5 49q180 0 287.5 -133t107.5 -370q0 -178 -53.5 -308.5t-153.5 -195.5l105 -152l-74 -51l-113 166q-66 -20 -127 -20q-84 0 -142 21.5t-89 47t-31 29.5h-2v-590zM301 168q23 -29 75 -59.5t140 -30.5q57 0 111 16l-117 174 l74 49l121 -178q119 104 118 398q0 215 -73.5 311t-212.5 96q-74 0 -127.5 -30.5t-81 -66.5t-27.5 -42v-637z" />
<glyph unicode="&#x490;" horiz-adv-x="794" d="M193 0v1331h475l22 205h88l8 -305h-438v-1231h-155z" />
<glyph unicode="&#x491;" horiz-adv-x="675" d="M154 0v1024h407l21 270h88l6 -366h-375v-928h-147z" />
<glyph unicode="&#x492;" horiz-adv-x="837" d="M70 625v80h123v626h641v-98h-486v-528h270v-80h-270v-625h-155v625h-123z" />
<glyph unicode="&#x493;" horiz-adv-x="720" d="M27 471v80h127v473h530v-96h-383v-377h274v-80h-274v-471h-147v471h-127z" />
<glyph unicode="&#x494;" horiz-adv-x="1150" d="M193 0v1331h641v-98h-486v-463q35 29 108.5 59.5t207.5 30.5q127 0 212 -52t132 -183t47 -361q0 -258 -64.5 -415.5t-159 -223t-194.5 -65.5q-102 0 -164 39l25 79q0 -2 33.5 -11t76.5 -9q76 0 139.5 41t108.5 176t45 395q0 199 -38 304.5t-101.5 142.5t-153.5 37 q-152 0 -260 -76v-678h-155z" />
<glyph unicode="&#x495;" horiz-adv-x="952" d="M154 0v1024h530v-96h-383v-369q117 84 246 84q110 0 178 -46t101.5 -162t33.5 -322q0 -231 -48 -376t-123 -207t-159 -62q-88 0 -155 47l33 77q2 -2 15 -9t34.5 -13t48.5 -6q61 0 104 39t71 160.5t28 355.5q0 170 -22.5 261t-64.5 123t-112 32q-109 0 -209 -76v-459h-147 z" />
<glyph unicode="&#x496;" horiz-adv-x="1718" d="M86 0l399 725l-362 606h129l328 -565h198v565h154v-563h190l367 563h129l-395 -579l397 -654h119l-27 -444h-100l-23 346h-92l-393 670h-172v-670h-154v670h-172l-340 -670h-180z" />
<glyph unicode="&#x497;" horiz-adv-x="1386" d="M51 0l318 551l-285 473h119l256 -436l149 -2v438h150v-438l145 2l281 436h116l-303 -477l265 -451h94l-15 -403h-94l-14 307h-82l-274 496l-119 -2v-494h-150v496l-114 2l-279 -498h-164z" />
<glyph unicode="&#x498;" horiz-adv-x="989" d="M41 188l57 72q0 -8 36 -54t109.5 -86t186.5 -40q139 0 216 75.5t77 217.5q0 264 -258 264l-191 -8v98l201 -8q49 2 98.5 34.5t82 96t32.5 151.5q0 252 -250 252q-70 0 -133 -21.5t-107 -47t-44 -27.5l-19 88q0 2 49 30t123 51.5t156 23.5q188 0 286.5 -90.5t98.5 -245.5 q0 -117 -62.5 -199t-152.5 -127q123 -27 191.5 -104.5t68.5 -214.5q0 -154 -93 -256.5t-259 -126.5l-25 -332h-100l-21 328q-127 8 -205.5 54t-113.5 94t-35 58z" />
<glyph unicode="&#x499;" horiz-adv-x="851" d="M23 141l51 66q0 -8 29.5 -42t91 -64.5t159.5 -30.5q125 0 197 65.5t72 163.5q0 90 -57.5 140t-145.5 50l-178 -4v88l186 -4h6q49 6 101.5 49.5t52.5 145.5q0 88 -57.5 140t-170.5 52q-63 0 -119.5 -20.5t-95.5 -46t-39 -27.5l-18 86q0 2 46 27.5t110.5 47t134.5 21.5 q178 0 267 -71.5t89 -194.5q0 -168 -162 -237q90 -25 146.5 -87.5t56.5 -160.5q0 -123 -85 -206t-234 -103l-15 -291h-94l-14 289q-115 6 -184.5 40.5t-98 72.5t-28.5 46z" />
<glyph unicode="&#x49a;" horiz-adv-x="1173" d="M193 0v1331h155v-725l162 144l448 581h125l-467 -594l459 -639h119l-27 -444h-100l-23 346h-92l-450 618l-154 -129v-489h-155z" />
<glyph unicode="&#x49b;" horiz-adv-x="950" d="M154 0v1024h147v-469l127 70l295 399h104l-303 -420l307 -508h89l-15 -403h-94l-14 307h-80l-303 514l-113 -53v-461h-147z" />
<glyph unicode="&#x49c;" horiz-adv-x="1249" d="M193 0v1331h155v-743l86 76v233h70v-170l26 23l449 581h125l-467 -594l530 -737h-194l-451 618l-18 -16v-213h-70v156l-86 -72v-473h-155z" />
<glyph unicode="&#x49d;" horiz-adv-x="954" d="M154 0v1024h147v-481l55 30v168h70v-129l23 13l294 399h105l-303 -420l364 -604h-172l-303 514l-10 -4v-154h-68v121l-55 -26v-451h-147z" />
<glyph unicode="&#x49e;" horiz-adv-x="1214" d="M14 1044v99h205v188h156v-188h205v-99h-205v-438l162 144l448 581h125l-467 -594l531 -737h-195l-451 618l-153 -129v-489h-156v1044h-205z" />
<glyph unicode="&#x49f;" horiz-adv-x="968" d="M20 805v82l168 8v129h148v-123h176v-96h-176v-250l127 70l295 399h104l-303 -420l365 -604h-172l-303 514l-113 -53v-461h-148v805h-168z" />
<glyph unicode="&#x4a0;" horiz-adv-x="1429" d="M14 1233v98h535v-725l162 144l448 581h125l-467 -594l531 -737h-195l-451 618l-153 -129v-489h-156v1233h-379z" />
<glyph unicode="&#x4a1;" horiz-adv-x="1126" d="M35 928v96h459v-469l127 70l294 399h105l-303 -420l364 -604h-172l-303 514l-112 -53v-461h-148v928h-311z" />
<glyph unicode="&#x4a2;" horiz-adv-x="1306" d="M193 0v1331h155v-598h608v598h156v-1233h154l-27 -444h-100l-23 346h-160v639h-608v-639h-155z" />
<glyph unicode="&#x4a3;" horiz-adv-x="1058" d="M154 0v1024h147v-451h457v451h149v-928h127l-14 -403h-94l-15 307h-153v481h-457v-481h-147z" />
<glyph unicode="&#x4a4;" horiz-adv-x="1601" d="M193 0v1331h155v-598h608v598h641v-98h-485v-1233h-156v639h-608v-639h-155z" />
<glyph unicode="&#x4a5;" horiz-adv-x="1327" d="M154 0v1024h147v-451h457v451h532v-96h-383v-928h-149v481h-457v-481h-147z" />
<glyph unicode="&#x4a6;" horiz-adv-x="1884" d="M193 0v1331h888v-561q35 29 109 59.5t207 30.5q127 0 212 -52t132 -183t47 -361q0 -258 -64.5 -415.5t-159 -223t-194.5 -65.5q-103 0 -164 39l25 79q0 -2 33.5 -11t76.5 -9q76 0 139.5 41t108.5 176t45 395q0 199 -37.5 304.5t-101 142.5t-154.5 37q-152 0 -260 -76 v-678h-155v1233h-578v-1233h-155z" />
<glyph unicode="&#x4a7;" horiz-adv-x="1542" d="M154 0v1024h737v-465q117 84 246 84q111 0 178 -46t101 -162t34 -322q0 -231 -48 -376t-123 -207t-159 -62q-87 0 -155 47l32 77q2 -2 15.5 -9t35 -13t48.5 -6q61 0 104 39t70.5 160.5t27.5 355.5q0 170 -22.5 261t-64.5 123t-111 32q-109 0 -209 -76v-459h-148v928h-442 v-928h-147z" />
<glyph unicode="&#x4a8;" horiz-adv-x="1400" d="M98 633q0 371 161 543t425 174v-97q-219 0 -319.5 -158.5t-100.5 -461.5q0 -170 48 -296t136.5 -192.5t202.5 -66.5q82 0 133 12q-61 35 -118.5 114t-93 183.5t-35.5 208.5q0 178 61 294t149.5 167t172.5 51q170 0 272 -112.5t102 -358.5q0 -129 -49 -242.5 t-119.5 -192.5t-134.5 -116q55 -20 109 -20q92 0 180 69l39 -65q-98 -90 -252 -90q-100 0 -184 38q-41 -20 -103.5 -29t-122.5 -9q-164 0 -290.5 80.5t-197.5 228t-71 344.5zM694 600q0 -147 55.5 -275t143.5 -196q94 57 164.5 193.5t70.5 312.5q0 375 -210 375 q-102 0 -163 -111t-61 -299z" />
<glyph unicode="&#x4a9;" horiz-adv-x="1091" d="M76 487q0 289 114.5 421t298.5 136v-88q-127 -12 -191.5 -117.5t-64.5 -351.5q0 -209 71 -313t208 -104q45 0 82 8q-82 53 -137.5 160.5t-55.5 228.5q0 205 89.5 298t218.5 93q117 0 204.5 -79t87.5 -292q0 -100 -36.5 -184t-87 -141.5t-91.5 -83.5q25 -12 60 -12 t71.5 13t63.5 34l39 -60q-41 -33 -91 -52t-100 -19q-78 0 -139 30q-86 -33 -182 -32q-199 0 -315.5 138t-116.5 369zM555 465q0 -113 40 -207t103 -143q59 41 102.5 136t43.5 228q0 143 -34 216t-105 73q-150 0 -150 -303z" />
<glyph unicode="&#x4aa;" horiz-adv-x="1167" d="M98 653q0 211 71 369t201 243t302 85q94 0 181 -25t148.5 -55.5t61.5 -32.5l-19 -98q0 2 -59 30.5t-138 53t-159 24.5q-199 0 -311.5 -150.5t-112.5 -439.5q0 -285 115 -430t321 -145q109 0 191 45t130 96t48 60l57 -66q0 -8 -46 -63.5t-132 -107.5t-207 -64l-24 -328 h-101l-22 330q-236 29 -366 205t-130 464z" />
<glyph unicode="&#x4ab;" horiz-adv-x="866" d="M76 502q0 262 113.5 402t332.5 140q72 0 135.5 -19t107.5 -43t44 -26l-18 -84q-8 6 -44 26t-92.5 38t-115.5 18q-158 0 -232 -104.5t-74 -345.5q0 -233 78 -333.5t219 -100.5q80 0 136.5 28.5t87 60t30.5 38.5l66 -43q0 -7 -31 -45.5t-92 -77.5t-154 -49l-14 -289h-94 l-14 291q-182 18 -278.5 148t-96.5 370z" />
<glyph unicode="&#x4ac;" horiz-adv-x="944" d="M14 1233v98h916v-98h-381v-1135h153l-26 -444h-101l-22 346h-160v1233h-379z" />
<glyph unicode="&#x4ad;" horiz-adv-x="839" d="M35 928v96h770l-2 -96h-309v-832h129l-15 -403h-94l-14 307h-154v928h-311z" />
<glyph unicode="&#x4ae;" d="M4 1331h174l367 -655l364 655h125l-434 -770v-561h-156v551z" />
<glyph unicode="&#x4af;" horiz-adv-x="890" d="M27 1024h176l266 -881l283 881h112l-346 -1024v-512l-147 -4v516z" />
<glyph unicode="&#x4b0;" d="M4 1331h174l367 -655l364 655h125l-426 -756h187v-79h-195v-496h-156v496h-198v79h184z" />
<glyph unicode="&#x4b1;" horiz-adv-x="890" d="M27 1024h176l266 -881l283 881h112l-334 -985h191v-80h-203v-471l-147 -4v475h-199v80h186z" />
<glyph unicode="&#x4b2;" horiz-adv-x="1232" d="M37 0l426 662l-410 669h189l329 -557l344 557h129l-407 -645l371 -588h155l-26 -444h-101l-22 346h-133l-351 571h-2l-354 -571h-137z" />
<glyph unicode="&#x4b3;" horiz-adv-x="999" d="M25 0l340 510l-324 514h176l252 -428l264 428h121l-317 -489l280 -439h133l-14 -403h-94l-15 307h-120l-275 442l-285 -442h-122z" />
<glyph unicode="&#x4b4;" horiz-adv-x="1505" d="M14 1233v98h895v-98h-360v-1135h577v1233h156v-1233h154l-27 -444h-100l-23 346h-893v1233h-379z" />
<glyph unicode="&#x4b5;" horiz-adv-x="1261" d="M35 928v96h729l-2 -96h-279v-832h453v928h147v-928h129l-14 -403h-94l-14 307h-754v928h-301z" />
<glyph unicode="&#x4b6;" horiz-adv-x="1157" d="M141 838v493h154v-471q0 -154 55.5 -218t175.5 -64q100 0 176 27.5t107 49.5v676h154v-1233h155l-26 -444h-101l-22 346h-160v563q0 -4 -45 -27.5t-120 -44t-173 -20.5q-330 0 -330 367z" />
<glyph unicode="&#x4b7;" horiz-adv-x="948" d="M96 670v354h150v-350q0 -102 40 -151.5t126 -49.5q63 0 114.5 12.5t81 24.5t37.5 16v498h150v-928h127l-15 -403h-94l-14 307h-154v451q-2 0 -32.5 -15.5t-102.5 -30t-150 -14.5q-264 0 -264 279z" />
<glyph unicode="&#x4b8;" horiz-adv-x="1157" d="M141 838v493h154v-471q0 -154 54 -218t175 -64v202h70v-198q76 8 132 31.5t83 41.5v676h154v-1331h-154v563q-6 -4 -31.5 -19.5t-73 -33.5t-110.5 -29v-209h-70v201q-16 -2 -53 -2q-330 0 -330 367z" />
<glyph unicode="&#x4b9;" horiz-adv-x="948" d="M96 670v354h150v-350q0 -100 39 -149.5t121 -51.5v148h69v-144q47 6 85 16.5t58.5 20.5t26.5 12v498h150v-1024h-150v451q-72 -35 -172 -52v-163h-67v157q-14 -2 -46 -2q-264 0 -264 279z" />
<glyph unicode="&#x4ba;" horiz-adv-x="1157" d="M195 0v1331h153v-563q0 4 45 27.5t120 44t173 20.5q330 0 330 -366v-494h-154v471q0 154 -55 218.5t-176 64.5q-100 0 -176 -28t-107 -50v-676h-153z" />
<glyph unicode="&#x4bb;" horiz-adv-x="1048" d="M152 0v1532l149 8v-608h2l25 28q26 27 102 55.5t166 28.5q150 0 230.5 -82.5t80.5 -246.5v-715h-147v696q0 240 -213 240q-74 0 -129.5 -22.5t-86 -49t-30.5 -30.5v-834h-149z" />
<glyph unicode="&#x4bc;" horiz-adv-x="1476" d="M0 866l117 27q4 -61 19.5 -98t57.5 -60.5t121 -32.5q8 193 77 339.5t187.5 227.5t272.5 81q170 0 289 -93.5t178 -253t59 -356.5v-43h-895q9 -264 123.5 -393t315.5 -129q109 0 191.5 45t130.5 96t48 60l56 -66q0 -10 -53.5 -70.5t-153 -113.5t-238.5 -53 q-266 0 -422.5 165.5t-165.5 462.5q-125 8 -193.5 38t-95 82t-26.5 138zM483 700h729q-10 260 -101 405.5t-259 145.5t-263 -146.5t-106 -404.5z" />
<glyph unicode="&#x4bd;" horiz-adv-x="1122" d="M-10 739l106 25q6 -86 41 -134t135 -61q16 223 127 349t291 126q176 0 271.5 -121.5t95.5 -344.5q0 -39 -4 -64t-6 -31h-621q0 -414 299 -413q82 0 140.5 29.5t91 63.5t32.5 40l60 -49q0 -8 -39 -52.5t-115 -83t-186 -38.5q-205 0 -321 125.5t-118 379.5q-158 12 -219 75 t-61 179zM428 569h490l2 39q0 348 -230 348q-121 0 -186.5 -95t-75.5 -292z" />
<glyph unicode="&#x4be;" horiz-adv-x="1476" d="M0 866l117 27q4 -61 19.5 -98t57.5 -60.5t121 -32.5q8 193 77 339.5t187.5 227.5t272.5 81q170 0 289 -93.5t178 -253t59 -356.5v-43h-895q8 -264 123 -393t316 -129q109 0 191.5 45t130.5 96t48 60l56 -66q0 -8 -49.5 -65.5t-139.5 -109.5t-217 -60l-16 -414h-99 l-22 420q-223 29 -352 189.5t-138 430.5q-125 8 -193.5 38t-95 82t-26.5 138zM483 700h729q-10 260 -101 405.5t-259 145.5t-263 -146.5t-106 -404.5z" />
<glyph unicode="&#x4bf;" horiz-adv-x="1122" d="M-10 739l106 25q6 -86 41 -134t135 -61q16 223 127 349t291 126q176 0 271.5 -121.5t95.5 -344.5q0 -39 -4 -64t-6 -31h-621q0 -414 299 -413q82 0 140.5 29.5t91 63.5t32.5 40l60 -49q0 -6 -35 -46t-99.5 -78t-156.5 -46l-10 -291h-99l-14 293q-172 20 -267.5 144 t-97.5 355q-158 12 -219 75t-61 179zM428 569h490l2 39q0 348 -230 348q-121 0 -186.5 -95t-75.5 -292z" />
<glyph unicode="&#x4c0;" horiz-adv-x="542" d="M193 0v1331h155v-1331h-155z" />
<glyph unicode="&#x4c1;" horiz-adv-x="1765" d="M86 0l399 725l-362 606h129l328 -565h198v565h154v-563h190l367 563h129l-395 -579l456 -752h-182l-393 670h-172v-670h-154v670h-172l-340 -670h-180zM567 1659l123 12v-10q0 -4 2 -16.5t10 -28.5q35 -80 154 -80q121 0 157 82q6 16 8.5 27.5t2.5 15.5v10l123 -12 q0 -16 -20.5 -64.5t-85 -93.5t-185.5 -45q-119 0 -183.5 45t-85 93t-20.5 65z" />
<glyph unicode="&#x4c2;" horiz-adv-x="1368" d="M51 0l318 551l-285 473h119l256 -436l149 -2v438h150v-438l145 2l281 436h116l-303 -477l320 -547h-166l-274 496l-119 -2v-494h-150v496l-114 2l-279 -498h-164zM393 1382l123 13v-11q0 -4 3 -19t11 -32q43 -74 152 -73q121 0 155 79q8 16 10.5 28.5t2.5 16.5v11 l123 -13q0 -16 -20.5 -64t-85 -93t-185.5 -45q-119 0 -183.5 45t-85 93t-20.5 64z" />
<glyph unicode="&#x4c3;" horiz-adv-x="1157" d="M193 0v1331h155v-725l162 144l448 581h125l-467 -594q279 -301 389.5 -509t110.5 -365q0 -86 -27.5 -155.5t-107.5 -147.5l-59 45q69 55 69 213q0 121 -112.5 329.5t-376.5 470.5l-154 -129v-489h-155z" />
<glyph unicode="&#x4c4;" horiz-adv-x="933" d="M154 0v1024h147v-479l127 69l295 410h104l-303 -430q203 -268 281 -442.5t78 -305.5q0 -74 -28 -142.5t-107 -143.5l-60 45q70 73 70 182q0 106 -81 291.5t-263 425.5l-113 -53v-451h-147z" />
<glyph unicode="&#x4c5;" horiz-adv-x="1271" d="M43 -2l6 111q4 -2 18.5 -5.5t32.5 -3.5q289 0 289 1231h649v-1233h164v-28l-162 -416h-92l74 346h-137v1233h-389q-2 -610 -98.5 -928.5t-270.5 -318.5q-37 0 -58.5 5t-25.5 7z" />
<glyph unicode="&#x4c6;" horiz-adv-x="1015" d="M14 -16l6 100h11q125 0 189.5 236.5t64.5 703.5h542v-928h140v-26l-152 -377h-86l84 307h-135v928h-289q-6 -457 -93 -701.5t-253 -244.5q-18 0 -29 2z" />
<glyph unicode="&#x4c7;" horiz-adv-x="1306" d="M193 0v1331h155v-598h608v598h156v-1360q0 -229 -83 -320t-228 -91q-84 0 -137.5 19.5t-79 41t-25.5 25.5l41 80q0 -2 19.5 -19.5t56.5 -33t90 -15.5q86 0 138 66.5t52 246.5v668h-608v-639h-155z" />
<glyph unicode="&#x4c8;" horiz-adv-x="1060" d="M154 0v1024h147v-451h457v451h149v-1108q0 -449 -289 -448q-49 0 -81.5 10t-48 20t-19.5 15l29 84q2 -2 15 -10.5t35.5 -15.5t51.5 -7q80 0 119 82t39 270v565h-457v-481h-147z" />
<glyph unicode="&#x4c9;" horiz-adv-x="1345" d="M193 0v1331h155v-598h608v598h156v-1233h164v-28l-162 -416h-92l74 346h-140v639h-608v-639h-155z" />
<glyph unicode="&#x4ca;" horiz-adv-x="1095" d="M154 0v1024h147v-451h457v451h149v-928h140v-26l-152 -377h-86l84 307h-135v481h-457v-481h-147z" />
<glyph unicode="&#x4cb;" horiz-adv-x="1157" d="M141 838v493h154v-471q0 -154 55.5 -218t175.5 -64q100 0 176 27.5t107 49.5v676h154v-1233h155l-26 -444h-101l-22 346h-160v563q0 -4 -45 -27.5t-120 -44t-173 -20.5q-330 0 -330 367z" />
<glyph unicode="&#x4cc;" horiz-adv-x="948" d="M96 670v354h150v-350q0 -102 40 -151.5t126 -49.5q63 0 114.5 12.5t81 24.5t37.5 16v498h150v-928h127l-15 -403h-94l-14 307h-154v451q-2 0 -32.5 -15.5t-102.5 -30t-150 -14.5q-264 0 -264 279z" />
<glyph unicode="&#x4cd;" horiz-adv-x="1751" d="M193 0l6 1331l4 -6l-2 6h190l469 -1141h2l469 1141h180l7 -1233h163v-28l-161 -416h-93l74 346h-135l-6 1141h-2l-461 -1141h-125l-463 1141l-4 -1141h-112z" />
<glyph unicode="&#x4ce;" horiz-adv-x="1366" d="M147 0l29 1024h182l306 -872l321 872h180l13 -928h139v-26l-152 -377h-86l84 307h-121l-8 813l-2 59l-332 -872h-114l-324 872l-2 -22l-16 -850h-97z" />
<glyph unicode="&#x4cf;" horiz-adv-x="456" d="M154 0v1532l147 8v-1540h-147z" />
<glyph unicode="&#x4d0;" horiz-adv-x="1163" d="M47 0l449 1331h182l440 -1331h-162l-139 410h-522l-139 -410h-109zM291 1659l123 12v-10q0 -4 2 -16.5t10 -28.5q35 -80 154 -80q121 0 157 82q6 16 8.5 27.5t2.5 15.5v10l123 -12q0 -16 -20.5 -64.5t-85 -93.5t-185.5 -45q-119 0 -183.5 45t-85 93t-20.5 65zM324 494 h467l-232 718z" />
<glyph unicode="&#x4d1;" horiz-adv-x="976" d="M66 231q0 301 579 363v108q0 145 -47 198.5t-166 53.5q-53 0 -108.5 -19.5t-93 -41t-48.5 -27.5l-16 84q10 8 52 31t106.5 43t130.5 20q176 0 258 -73.5t82 -259.5v-502q0 -82 15 -110.5t38 -28.5q18 0 45 7t35 11l6 -70q-16 -6 -69.5 -22t-90.5 -16q-53 0 -81.5 33.5 t-35.5 119.5h-2q0 -8 -32.5 -47t-97 -72.5t-160.5 -33.5q-136 0 -217.5 66.5t-81.5 184.5zM199 1382l123 13v-11q0 -4 3 -19t11 -32q43 -74 152 -73q121 0 155 79q8 16 10.5 28.5t2.5 16.5v11l123 -13q0 -16 -20.5 -64t-85 -93t-185.5 -45q-119 0 -183.5 45t-85 93t-20.5 64 zM219 250q0 -88 51.5 -134t139.5 -46q73 0 126.5 32.5t81 71.5t27.5 45v299q-186 -20 -306 -79.5t-120 -188.5z" />
<glyph unicode="&#x4d2;" horiz-adv-x="1163" d="M47 0l449 1331h182l440 -1331h-162l-139 410h-522l-139 -410h-109zM324 494h467l-232 718zM346 1626q0 39 22 61q27 20 56 21q27 0 53 -21q23 -27 22 -61q0 -33 -22 -59q-27 -20 -53 -21q-29 1 -56 21q-23 23 -22 59zM661 1626q0 39 23 61q27 20 53 21q27 0 53 -21 q25 -25 25 -61q0 -35 -25 -59q-27 -20 -53 -21q-26 1 -53 21q-23 23 -23 59z" />
<glyph unicode="&#x4d3;" horiz-adv-x="976" d="M66 231q0 301 579 363v108q0 145 -47 198.5t-166 53.5q-53 0 -108.5 -19.5t-93 -41t-48.5 -27.5l-16 84q10 8 52 31t106.5 43t130.5 20q176 0 258 -73.5t82 -259.5v-502q0 -82 15 -110.5t38 -28.5q18 0 45 7t35 11l6 -70q-16 -6 -69.5 -22t-90.5 -16q-53 0 -81.5 33.5 t-35.5 119.5h-2q0 -8 -32.5 -47t-97 -72.5t-160.5 -33.5q-136 0 -217.5 66.5t-81.5 184.5zM219 250q0 -88 51.5 -134t139.5 -46q73 0 126.5 32.5t81 71.5t27.5 45v299q-186 -20 -306 -79.5t-120 -188.5zM254 1319q0 39 22 61q27 20 56 21q27 0 53 -21q23 -27 22 -61 q0 -33 -22 -59q-27 -20 -53 -21q-29 1 -56 21q-23 23 -22 59zM569 1319q0 39 23 61q27 20 53 21q27 0 53 -21q25 -25 25 -61q0 -35 -25 -59q-27 -20 -53 -21q-26 1 -53 21q-23 23 -23 59z" />
<glyph unicode="&#x4d4;" horiz-adv-x="1615" d="M-25 0l760 1331h764v-98h-563v-512h514v-94h-514v-529h606v-98h-762v420h-450l-238 -420h-117zM375 504h405v729h-8z" />
<glyph unicode="&#x4d5;" horiz-adv-x="1488" d="M66 233q0 307 571 363v82q0 104 -16.5 163.5t-57.5 86t-117 26.5q-53 0 -108 -19.5t-92 -41t-47 -27.5l-19 84q10 8 52 31t106.5 43t132.5 20q113 0 175.5 -39.5t86.5 -127.5q53 82 136 124.5t188 42.5q176 0 271 -121.5t95 -344.5q0 -39 -4 -64t-6 -31h-620 q0 -414 299 -413q82 0 140 29.5t91 63.5t33 40l59 -49q0 -8 -39 -52.5t-114.5 -83t-186.5 -38.5q-145 0 -247.5 63t-149.5 193q-33 -109 -106.5 -182.5t-206.5 -73.5q-134 0 -216.5 67.5t-82.5 185.5zM219 252q0 -88 52.5 -135t138.5 -47q120 0 170.5 105.5t60.5 232.5 q-4 53 -4 84v30q-184 -20 -301 -80.5t-117 -189.5zM795 569h489l2 39q0 348 -229 348q-121 0 -186.5 -95t-75.5 -292z" />
<glyph unicode="&#x4d6;" d="M193 0v1331h716v-98h-561v-512h514v-94h-514v-529h606v-98h-761zM291 1659l123 12v-10q0 -4 2 -16.5t10 -28.5q35 -80 154 -80q121 0 157 82q6 16 8.5 27.5t2.5 15.5v10l123 -12q0 -16 -20.5 -64.5t-85 -93.5t-185.5 -45q-119 0 -183.5 45t-85 93t-20.5 65z" />
<glyph unicode="&#x4d7;" horiz-adv-x="927" d="M76 492q0 258 112.5 405t307.5 147q176 0 271 -121.5t95 -344.5q0 -39 -4 -64t-6 -31h-621q0 -414 299 -413q82 0 140.5 29.5t91.5 63.5t33 40l59 -49q0 -8 -39 -52.5t-114.5 -83t-186.5 -38.5q-205 0 -321.5 128t-116.5 384zM215 1382l123 13v-11q0 -4 3 -19t11 -32 q43 -74 152 -73q121 0 155 79q8 16 10.5 28.5t2.5 16.5v11l123 -13q0 -16 -20.5 -64t-85 -93t-185.5 -45q-119 0 -183.5 45t-85 93t-20.5 64zM233 569h490l2 39q0 348 -229 348q-121 0 -186.5 -95t-76.5 -292z" />
<glyph unicode="&#x4d8;" horiz-adv-x="1212" d="M98 582q0 51 5.5 82.5t7.5 40.5h837q2 274 -97 410t-284 136q-113 0 -197.5 -45t-164.5 -139l-76 63q96 109 200.5 164.5t258.5 55.5q241 0 383.5 -177.5t142.5 -519.5q0 -203 -60.5 -354.5t-174 -235t-267.5 -83.5q-246 0 -380 156.5t-134 445.5zM248 543 q0 -225 95 -345t253 -120q168 0 254 126t96 388h-694q0 -4 -2 -18.5t-2 -30.5z" />
<glyph unicode="&#x4d9;" horiz-adv-x="927" d="M66 446q0 39 4 64t6 31h620q0 414 -299 413q-82 0 -140 -29.5t-91 -63.5t-33 -40l-59 49q0 8 39 52.5t114.5 83t186.5 38.5q204 0 321 -128t117 -384q0 -258 -112.5 -405t-307.5 -147q-176 0 -271 121.5t-95 344.5zM203 416q0 -348 229 -348q121 0 186.5 95t75.5 292 h-489z" />
<glyph unicode="&#x4da;" horiz-adv-x="1212" d="M98 582q0 51 5.5 82.5t7.5 40.5h837q2 274 -97 410t-284 136q-113 0 -197.5 -45t-164.5 -139l-76 63q96 109 200.5 164.5t258.5 55.5q241 0 383.5 -177.5t142.5 -519.5q0 -203 -60.5 -354.5t-174 -235t-267.5 -83.5q-246 0 -380 156.5t-134 445.5zM248 543 q0 -225 95 -345t253 -120q168 0 254 126t96 388h-694q0 -4 -2 -18.5t-2 -30.5zM363 1626q0 39 22 61q27 20 56 21q27 0 53 -21q23 -27 22 -61q0 -33 -22 -59q-27 -20 -53 -21q-29 1 -56 21q-23 23 -22 59zM678 1626q0 39 23 61q27 20 53 21q27 0 53 -21q25 -25 25 -61 q0 -35 -25 -59q-27 -20 -53 -21q-26 1 -53 21q-23 23 -23 59z" />
<glyph unicode="&#x4db;" horiz-adv-x="927" d="M66 446q0 39 4 64t6 31h620q0 414 -299 413q-82 0 -140 -29.5t-91 -63.5t-33 -40l-59 49q0 8 39 52.5t114.5 83t186.5 38.5q204 0 321 -128t117 -384q0 -258 -112.5 -405t-307.5 -147q-176 0 -271 121.5t-95 344.5zM203 416q0 -348 229 -348q121 0 186.5 95t75.5 292 h-489zM209 1319q0 39 22 61q27 20 56 21q27 0 53 -21q23 -27 22 -61q0 -33 -22 -59q-27 -20 -53 -21q-29 1 -56 21q-23 23 -22 59zM524 1319q0 39 23 61q27 20 53 21q27 0 53 -21q25 -25 25 -61q0 -35 -25 -59q-27 -20 -53 -21q-26 1 -53 21q-23 23 -23 59z" />
<glyph unicode="&#x4dc;" horiz-adv-x="1765" d="M86 0l399 725l-362 606h129l328 -565h198v565h154v-563h190l367 563h129l-395 -579l456 -752h-182l-393 670h-172v-670h-154v670h-172l-340 -670h-180zM623 1626q0 39 22 61q27 20 56 21q27 0 53 -21q23 -27 22 -61q0 -33 -22 -59q-27 -20 -53 -21q-29 1 -56 21 q-23 23 -22 59zM938 1626q0 39 23 61q27 20 53 21q27 0 53 -21q25 -25 25 -61q0 -35 -25 -59q-27 -20 -53 -21q-26 1 -53 21q-23 23 -23 59z" />
<glyph unicode="&#x4dd;" horiz-adv-x="1368" d="M51 0l318 551l-285 473h119l256 -436l149 -2v438h150v-438l145 2l281 436h116l-303 -477l320 -547h-166l-274 496l-119 -2v-494h-150v496l-114 2l-279 -498h-164zM449 1319q0 39 22 61q27 20 56 21q27 0 53 -21q23 -27 22 -61q0 -33 -22 -59q-27 -20 -53 -21 q-29 1 -56 21q-23 23 -22 59zM764 1319q0 39 23 61q27 20 53 21q27 0 53 -21q25 -25 25 -61q0 -35 -25 -59q-27 -20 -53 -21q-26 1 -53 21q-23 23 -23 59z" />
<glyph unicode="&#x4de;" horiz-adv-x="989" d="M41 188l57 72q0 -8 36 -54t109.5 -86t186.5 -40q139 0 216 75.5t77 217.5q0 264 -258 264l-191 -8v98l201 -8q49 2 98.5 34.5t82 96t32.5 151.5q0 252 -250 252q-70 0 -133 -21.5t-107 -47t-44 -27.5l-19 88q0 2 49 30t123 51.5t156 23.5q188 0 286.5 -90.5t98.5 -245.5 q0 -117 -62.5 -199t-152.5 -127q123 -27 191.5 -104.5t68.5 -214.5q0 -115 -54.5 -203t-155.5 -137t-237 -49q-147 0 -237 46t-129 98t-39 64zM219 1626q0 39 22 61q27 20 56 21q27 0 53 -21q23 -27 22 -61q0 -33 -22 -59q-27 -20 -53 -21q-29 1 -56 21q-23 23 -22 59z M534 1626q0 39 23 61q27 20 53 21q27 0 53 -21q25 -25 25 -61q0 -35 -25 -59q-27 -20 -53 -21q-26 1 -53 21q-23 23 -23 59z" />
<glyph unicode="&#x4df;" horiz-adv-x="851" d="M23 141l51 66q0 -8 29.5 -42t91 -64.5t159.5 -30.5q125 0 197 65.5t72 163.5q0 90 -57.5 140t-145.5 50l-178 -4v88l186 -4h6q49 6 101.5 49.5t52.5 145.5q0 88 -57.5 140t-170.5 52q-63 0 -119.5 -20.5t-95.5 -46t-39 -27.5l-18 86q0 2 46 27.5t110.5 47t134.5 21.5 q178 0 267 -71.5t89 -194.5q0 -168 -162 -237q90 -25 146.5 -87.5t56.5 -160.5q0 -139 -107.5 -226t-293.5 -87q-131 0 -209 35.5t-110.5 75.5t-32.5 50zM170 1319q0 39 22 61q27 20 56 21q27 0 53 -21q23 -27 22 -61q0 -33 -22 -59q-27 -20 -53 -21q-29 1 -56 21 q-23 23 -22 59zM485 1319q0 39 23 61q27 20 53 21q27 0 53 -21q25 -25 25 -61q0 -35 -25 -59q-27 -20 -53 -21q-26 1 -53 21q-23 23 -23 59z" />
<glyph unicode="&#x4e0;" horiz-adv-x="999" d="M51 188l58 72q0 -8 35.5 -54t109.5 -86t186 -40q135 0 214 88t79 231q0 141 -71.5 215t-206.5 76l-181 -8v98l144 -6l299 459h-600v98h770v-84l-332 -481q156 -23 252 -116t96 -255q0 -115 -54 -210t-155.5 -150t-236.5 -55q-147 0 -237.5 46t-129.5 98t-39 64z" />
<glyph unicode="&#x4e1;" horiz-adv-x="813" d="M-51 -391l49 78q0 -6 35 -38t100.5 -59.5t159.5 -27.5q137 0 212 107.5t75 271.5q0 158 -58.5 252t-173.5 96l-205 -4v88l105 -2l309 561h-532l-7 92h701v-82l-338 -573h2q352 -25 352 -435q0 -133 -55 -238.5t-157.5 -166.5t-239.5 -61q-125 0 -208 46t-126 95z" />
<glyph unicode="&#x4e2;" horiz-adv-x="1335" d="M193 0v1331h155v-1071l-10 -67h2l647 1116l10 22h146v-1331h-154v1061l8 76h-2l-645 -1114l-10 -23h-147zM477 1610v73h381v-73h-381z" />
<glyph unicode="&#x4e3;" horiz-adv-x="1087" d="M154 0v1024h147v-817l500 817h133v-1024h-150v840l-516 -840h-114zM358 1303v73h381v-73h-381z" />
<glyph unicode="&#x4e4;" horiz-adv-x="1335" d="M193 0v1331h155v-1071l-10 -67h2l647 1116l10 22h146v-1331h-154v1061l8 76h-2l-645 -1114l-10 -23h-147zM432 1626q0 39 22 61q27 20 56 21q27 0 53 -21q23 -27 22 -61q0 -33 -22 -59q-27 -20 -53 -21q-29 1 -56 21q-23 23 -22 59zM747 1626q0 39 23 61q27 20 53 21 q27 0 53 -21q25 -25 25 -61q0 -35 -25 -59q-27 -20 -53 -21q-26 1 -53 21q-23 23 -23 59z" />
<glyph unicode="&#x4e5;" horiz-adv-x="1087" d="M154 0v1024h147v-817l500 817h133v-1024h-150v840l-516 -840h-114zM314 1319q0 39 22 61q27 20 56 21q27 0 53 -21q23 -27 22 -61q0 -33 -22 -59q-27 -20 -53 -21q-29 1 -56 21q-23 23 -22 59zM629 1319q0 39 23 61q27 20 53 21q27 0 53 -21q25 -25 25 -61q0 -35 -25 -59 q-27 -20 -53 -21q-26 1 -53 21q-23 23 -23 59z" />
<glyph unicode="&#x4e6;" horiz-adv-x="1339" d="M98 664q0 211 67.5 365.5t195.5 237.5t307 83q178 0 307 -83t197.5 -238t68.5 -365q0 -211 -68.5 -366t-197.5 -236.5t-307 -81.5q-179 0 -307 81.5t-195.5 236.5t-67.5 366zM264 664q0 -287 103.5 -436.5t300.5 -149.5q196 0 301.5 149.5t105.5 436.5q0 285 -105.5 436 t-301.5 151q-195 0 -299.5 -151.5t-104.5 -435.5zM434 1626q0 39 22 61q27 20 56 21q27 0 53 -21q23 -27 22 -61q0 -33 -22 -59q-27 -20 -53 -21q-29 1 -56 21q-23 23 -22 59zM749 1626q0 39 23 61q27 20 53 21q27 0 53 -21q25 -25 25 -61q0 -35 -25 -59q-27 -20 -53 -21 q-26 1 -53 21q-23 23 -23 59z" />
<glyph unicode="&#x4e7;" horiz-adv-x="1026" d="M76 512q0 254 111.5 393t324.5 139t324.5 -139t111.5 -393q0 -252 -113.5 -392t-322.5 -140q-213 0 -324.5 139t-111.5 393zM233 512q0 -223 68 -332.5t211 -109.5t211 109.5t68 332.5q0 221 -68 331.5t-211 110.5t-211 -109.5t-68 -332.5zM279 1319q0 39 22 61 q27 20 56 21q27 0 53 -21q23 -27 22 -61q0 -33 -22 -59q-27 -20 -53 -21q-29 1 -56 21q-23 23 -22 59zM594 1319q0 39 23 61q27 20 53 21q27 0 53 -21q25 -25 25 -61q0 -35 -25 -59q-27 -20 -53 -21q-26 1 -53 21q-23 23 -23 59z" />
<glyph unicode="&#x4e8;" horiz-adv-x="1339" d="M98 664q0 211 67.5 365.5t195.5 237.5t307 83q178 0 307 -83t197.5 -238t68.5 -365q0 -211 -68.5 -366t-197.5 -236.5t-307 -81.5t-306.5 81.5t-196 236.5t-67.5 366zM264 625q8 -268 111.5 -407.5t292.5 -139.5q190 0 294.5 139t112.5 408h-811zM264 705h811 q-8 264 -113.5 405t-293.5 141q-187 0 -291.5 -141t-112.5 -405z" />
<glyph unicode="&#x4e9;" horiz-adv-x="1026" d="M76 512q0 254 111.5 393t324.5 139t324.5 -139t111.5 -393q0 -252 -113.5 -392t-322.5 -140q-213 0 -324.5 139t-111.5 393zM233 471q6 -203 74 -302t205 -99t204.5 99t74.5 302h-558zM233 551h558q-6 203 -74 303t-205 100t-204.5 -100t-74.5 -303z" />
<glyph unicode="&#x4ea;" horiz-adv-x="1339" d="M98 664q0 211 67.5 365.5t195.5 237.5t307 83q178 0 307 -83t197.5 -238t68.5 -365q0 -211 -68.5 -366t-197.5 -236.5t-307 -81.5t-306.5 81.5t-196 236.5t-67.5 366zM264 625q8 -268 111.5 -407.5t292.5 -139.5q190 0 294.5 139t112.5 408h-811zM264 705h811 q-8 264 -113.5 405t-293.5 141q-187 0 -291.5 -141t-112.5 -405zM434 1626q0 39 22 61q27 20 56 21q27 0 53 -21q23 -27 22 -61q0 -33 -22 -59q-27 -20 -53 -21q-29 1 -56 21q-23 23 -22 59zM749 1626q0 39 23 61q27 20 53 21q27 0 53 -21q25 -25 25 -61q0 -35 -25 -59 q-27 -20 -53 -21q-26 1 -53 21q-23 23 -23 59z" />
<glyph unicode="&#x4eb;" horiz-adv-x="1026" d="M76 512q0 254 111.5 393t324.5 139t324.5 -139t111.5 -393q0 -252 -113.5 -392t-322.5 -140q-213 0 -324.5 139t-111.5 393zM233 471q6 -203 74 -302t205 -99t204.5 99t74.5 302h-558zM233 551h558q-6 203 -74 303t-205 100t-204.5 -100t-74.5 -303zM279 1319q0 39 22 61 q27 20 56 21q27 0 53 -21q23 -27 22 -61q0 -33 -22 -59q-27 -20 -53 -21q-29 1 -56 21q-23 23 -22 59zM594 1319q0 39 23 61q27 20 53 21q27 0 53 -21q25 -25 25 -61q0 -35 -25 -59q-27 -20 -53 -21q-26 1 -53 21q-23 23 -23 59z" />
<glyph unicode="&#x4ec;" horiz-adv-x="1148" d="M27 176l53 84q0 -6 46 -52t127 -86t189 -40q193 0 310.5 136t128.5 405h-654v94h654q-6 279 -106.5 405.5t-307.5 126.5q-86 0 -156.5 -22.5t-115.5 -49t-45 -30.5l-19 92q0 4 51 32.5t130 53.5t173 25q279 0 423.5 -177.5t144.5 -500.5q0 -209 -73 -365.5t-205 -241.5 t-302 -85q-141 0 -240.5 44t-152.5 94t-53 58zM279 1626q0 39 22 61q27 20 56 21q27 0 53 -21q23 -27 22 -61q0 -33 -22 -59q-27 -20 -53 -21q-29 1 -56 21q-23 23 -22 59zM594 1626q0 39 23 61q27 20 53 21q27 0 53 -21q25 -25 25 -61q0 -35 -25 -59q-27 -20 -53 -21 q-26 1 -53 21q-23 23 -23 59z" />
<glyph unicode="&#x4ed;" horiz-adv-x="886" d="M35 127l47 63q0 -6 31.5 -36.5t90 -57t142.5 -26.5q297 0 318 403l-443 -2v98h443q-12 387 -302 387q-66 0 -124 -20.5t-100 -45t-42 -26.5l-18 86q0 2 48 28t114.5 46t136.5 20q201 0 317.5 -132t116.5 -369q0 -178 -57.5 -305t-159.5 -192.5t-234 -65.5 q-110 0 -182 32.5t-107.5 69.5t-35.5 45zM187 1319q0 39 22 61q27 20 56 21q27 0 53 -21q23 -27 22 -61q0 -33 -22 -59q-27 -20 -53 -21q-29 1 -56 21q-23 23 -22 59zM502 1319q0 39 23 61q27 20 53 21q27 0 53 -21q25 -25 25 -61q0 -35 -25 -59q-27 -20 -53 -21 q-26 1 -53 21q-23 23 -23 59z" />
<glyph unicode="&#x4ee;" horiz-adv-x="1165" d="M61 1331h181l430 -862l313 862h123l-381 -975q-82 -207 -176 -290.5t-217 -83.5q-49 0 -87 9t-58.5 18t-24.5 14l22 108q4 -4 22.5 -13t51.5 -17.5t74 -8.5q78 0 139.5 44t120.5 169zM496 1610v73h381v-73h-381z" />
<glyph unicode="&#x4ef;" horiz-adv-x="919" d="M31 1024h176l303 -856l274 856h109l-354 -1040q-88 -252 -173 -384t-210 -132q-37 0 -63.5 6t-41 12t-18.5 8l16 94q6 -4 30.5 -11t53.5 -7q94 0 157.5 101.5t141.5 316.5zM293 1303v73h381v-73h-381z" />
<glyph unicode="&#x4f0;" horiz-adv-x="1165" d="M61 1331h181l430 -862l313 862h123l-381 -975q-82 -207 -176 -290.5t-217 -83.5q-49 0 -87 9t-58.5 18t-24.5 14l22 108q4 -4 22.5 -13t51.5 -17.5t74 -8.5q78 0 139.5 44t120.5 169zM451 1626q0 39 22 61q27 20 56 21q27 0 53 -21q23 -27 22 -61q0 -33 -22 -59 q-27 -20 -53 -21q-29 1 -56 21q-23 23 -22 59zM766 1626q0 39 23 61q27 20 53 21q27 0 53 -21q25 -25 25 -61q0 -35 -25 -59q-27 -20 -53 -21q-26 1 -53 21q-23 23 -23 59z" />
<glyph unicode="&#x4f1;" horiz-adv-x="919" d="M31 1024h176l303 -856l274 856h109l-354 -1040q-88 -252 -173 -384t-210 -132q-37 0 -63.5 6t-41 12t-18.5 8l16 94q6 -4 30.5 -11t53.5 -7q94 0 157.5 101.5t141.5 316.5zM248 1319q0 39 22 61q27 20 56 21q27 0 53 -21q23 -27 22 -61q0 -33 -22 -59q-27 -20 -53 -21 q-29 1 -56 21q-23 23 -22 59zM563 1319q0 39 23 61q27 20 53 21q27 0 53 -21q25 -25 25 -61q0 -35 -25 -59q-27 -20 -53 -21q-26 1 -53 21q-23 23 -23 59z" />
<glyph unicode="&#x4f2;" horiz-adv-x="1165" d="M61 1331h181l430 -862l313 862h123l-381 -975q-82 -207 -176 -290.5t-217 -83.5q-49 0 -87 9t-58.5 18t-24.5 14l22 108q4 -4 22.5 -13t51.5 -17.5t74 -8.5q78 0 139.5 44t120.5 169zM504 1515l92 262l106 -26l-129 -264zM768 1515l94 262l104 -26l-129 -264z" />
<glyph unicode="&#x4f3;" horiz-adv-x="919" d="M31 1024h176l303 -856l274 856h109l-354 -1040q-88 -252 -173 -384t-210 -132q-37 0 -63.5 6t-41 12t-18.5 8l16 94q6 -4 30.5 -11t53.5 -7q94 0 157.5 101.5t141.5 316.5zM301 1208l92 262l106 -26l-129 -264zM565 1208l94 262l104 -26l-129 -264z" />
<glyph unicode="&#x4f4;" horiz-adv-x="1157" d="M141 838v493h154v-471q0 -154 55.5 -218t175.5 -64q100 0 176 27.5t107 49.5v676h154v-1331h-154v563q0 -4 -45 -27.5t-120 -44t-173 -20.5q-330 0 -330 367zM314 1626q0 39 22 61q27 20 56 21q27 0 53 -21q23 -27 22 -61q0 -33 -22 -59q-27 -20 -53 -21q-29 1 -56 21 q-23 23 -22 59zM629 1626q0 39 23 61q27 20 53 21q27 0 53 -21q25 -25 25 -61q0 -35 -25 -59q-27 -20 -53 -21q-26 1 -53 21q-23 23 -23 59z" />
<glyph unicode="&#x4f5;" horiz-adv-x="948" d="M96 670v354h150v-350q0 -102 40 -151.5t126 -49.5q63 0 114.5 12.5t81 24.5t37.5 16v498h150v-1024h-150v451q-2 0 -32.5 -15.5t-102.5 -30t-150 -14.5q-264 0 -264 279zM211 1319q0 39 22 61q27 20 56 21q27 0 53 -21q23 -27 22 -61q0 -33 -22 -59q-27 -20 -53 -21 q-29 1 -56 21q-23 23 -22 59zM526 1319q0 39 23 61q27 20 53 21q27 0 53 -21q25 -25 25 -61q0 -35 -25 -59q-27 -20 -53 -21q-26 1 -53 21q-23 23 -23 59z" />
<glyph unicode="&#x4f6;" horiz-adv-x="837" d="M193 0v1331h641v-98h-486v-1135h154l-27 -444h-100l-23 346h-159z" />
<glyph unicode="&#x4f7;" horiz-adv-x="720" d="M154 0v1024h530v-96h-383v-832h129l-14 -403h-94l-15 307h-153z" />
<glyph unicode="&#x4f8;" horiz-adv-x="1550" d="M193 0v1331h155v-536h158q233 0 361 -96.5t128 -286.5q0 -197 -121.5 -304.5t-359.5 -107.5h-321zM348 90h162q166 0 247 79t81 239q0 156 -85 228.5t-247 72.5h-158v-619zM541 1626q0 39 22 61q27 20 56 21q27 0 53 -21q23 -27 22 -61q0 -33 -22 -59q-27 -20 -53 -21 q-29 1 -56 21q-23 23 -22 59zM856 1626q0 39 23 61q27 20 53 21q27 0 53 -21q25 -25 25 -61q0 -35 -25 -59q-27 -20 -53 -21q-26 1 -53 21q-23 23 -23 59zM1202 0v1331h156v-1331h-156z" />
<glyph unicode="&#x4f9;" horiz-adv-x="1341" d="M154 0v1024h147v-387h160q186 0 294.5 -72.5t108.5 -234.5q0 -330 -399 -330h-311zM301 82h160q121 0 184.5 57.5t63.5 190.5q0 125 -71 176t-181 51h-156v-475zM436 1319q0 39 22 61q27 20 56 21q27 0 53 -21q23 -27 22 -61q0 -33 -22 -59q-27 -20 -53 -21q-29 1 -56 21 q-23 23 -22 59zM751 1319q0 39 23 61q27 20 53 21q27 0 53 -21q25 -25 25 -61q0 -35 -25 -59q-27 -20 -53 -21q-26 1 -53 21q-23 23 -23 59zM1040 0v1024h150v-1024h-150z" />
<glyph unicode="&#x4fa;" horiz-adv-x="972" d="M20 629v94h195v608h731v-98h-575v-510h362v-94h-362v-531h211v-92q0 -197 -75 -281.5t-190 -84.5q-39 0 -92 16v90q31 -12 88 -12q53 0 90 50t37 216h-225v629h-195z" />
<glyph unicode="&#x4fb;" horiz-adv-x="745" d="M35 469v86h143v469h531v-96h-383v-373h292v-86h-292v-373h172v-84q0 -182 -70 -263t-176 -81q-29 1 -82 15v84q27 -10 80 -11q49 0 84 46t35 198h-191v469h-143z" />
<glyph unicode="&#x4fc;" horiz-adv-x="1064" d="M37 0l426 662l-410 669h189l329 -557l344 557h129l-407 -645q166 -266 238.5 -394t111.5 -234.5t39 -211.5q0 -74 -27.5 -142.5t-107.5 -143.5l-60 45q70 73 70 182q0 113 -81 293t-290 491l-356 -571h-137z" />
<glyph unicode="&#x4fd;" horiz-adv-x="894" d="M25 0l342 516l-326 508h176l254 -422l262 422h121l-317 -492q182 -256 246.5 -400t64.5 -241q0 -72 -25.5 -135t-101.5 -135l-57 41q65 70 65 174q0 82 -61.5 221.5t-235.5 382.5l-285 -440h-122z" />
<glyph unicode="&#x4fe;" horiz-adv-x="1107" d="M37 0l401 625h-252v94h242l-375 612h189l329 -557l344 557h129l-387 -612h256v-94h-237l395 -625h-190l-351 571h-2l-354 -571h-137z" />
<glyph unicode="&#x4ff;" horiz-adv-x="907" d="M25 0l317 477h-172v86h160l-289 461h176l252 -428l264 428h121l-299 -461h176v-86h-158l308 -477h-174l-275 442l-285 -442h-122z" />
<glyph unicode="&#x2000;" horiz-adv-x="895" />
<glyph unicode="&#x2001;" horiz-adv-x="1790" />
<glyph unicode="&#x2002;" horiz-adv-x="895" />
<glyph unicode="&#x2003;" horiz-adv-x="1790" />
<glyph unicode="&#x2004;" horiz-adv-x="596" />
<glyph unicode="&#x2005;" horiz-adv-x="447" />
<glyph unicode="&#x2006;" horiz-adv-x="298" />
<glyph unicode="&#x2007;" horiz-adv-x="298" />
<glyph unicode="&#x2008;" horiz-adv-x="223" />
<glyph unicode="&#x2009;" horiz-adv-x="358" />
<glyph unicode="&#x200a;" horiz-adv-x="99" />
<glyph unicode="&#x2010;" horiz-adv-x="608" d="M70 520v96h469v-96h-469z" />
<glyph unicode="&#x2011;" horiz-adv-x="608" d="M70 520v96h469v-96h-469z" />
<glyph unicode="&#x2012;" horiz-adv-x="608" d="M70 520v96h469v-96h-469z" />
<glyph unicode="&#x2013;" horiz-adv-x="962" d="M70 520v96h823v-96h-823z" />
<glyph unicode="&#x2014;" horiz-adv-x="1275" d="M70 520v96h1138v-96h-1138z" />
<glyph unicode="&#x2018;" horiz-adv-x="288" d="M45 1149q0 98 52.5 218t129.5 183l43 -45q-63 -57 -102 -147t-39 -168v-10h8q31 0 56 -19q23 -27 22 -61q0 -35 -22 -62q-27 -23 -58 -22q-32 -1 -55 22l-8 9q-27 35 -27 102z" />
<glyph unicode="&#x2019;" horiz-adv-x="288" d="M2 1055q63 57 102 147t39 166v10h-8q-33 0 -53 21q-25 25 -25 61q0 37 25 62q20 20 55 20t58 -20q2 -2 14 -21q18 -37 18 -92q0 -98 -51 -217t-129 -184z" />
<glyph unicode="&#x201a;" horiz-adv-x="288" d="M2 -287q63 59 102 148.5t39 165.5v10h-8q-33 0 -53 20q-25 25 -25 62t25 61q20 20 55 21q35 0 58 -21q2 -2 14 -20q18 -37 18 -92q0 -98 -51 -217t-129 -185z" />
<glyph unicode="&#x201c;" horiz-adv-x="593" d="M45 1149q0 98 52.5 218t129.5 183l43 -45q-63 -57 -102 -147t-39 -168v-10h8q31 0 56 -19q23 -27 22 -61q0 -35 -22 -62q-27 -23 -58 -22q-32 -1 -55 22l-8 9q-27 35 -27 102zM348 1149q0 98 52.5 218t129.5 183l43 -45q-63 -57 -102 -147t-39 -168v-10h8q31 0 56 -19 q23 -27 22 -61q0 -35 -22 -62q-27 -23 -58 -22q-32 -1 -55 22l-8 9q-27 35 -27 102z" />
<glyph unicode="&#x201d;" horiz-adv-x="593" d="M2 1055q63 57 102 147t39 166v10h-8q-33 0 -53 21q-25 25 -25 61q0 37 25 62q20 20 55 20t58 -20q2 -2 14 -21q18 -37 18 -92q0 -98 -51 -217t-129 -184zM305 1055q63 57 102 147t39 166v10h-8q-33 0 -53 21q-25 25 -25 61q0 37 25 62q20 20 55 20t58 -20q2 -2 14 -21 q18 -37 18 -92q0 -98 -51 -217t-129 -184z" />
<glyph unicode="&#x201e;" horiz-adv-x="593" d="M2 -287q63 59 102 148.5t39 165.5v10h-8q-33 0 -53 20q-25 25 -25 62t25 61q20 20 55 21q35 0 58 -21q2 -2 14 -20q18 -37 18 -92q0 -98 -51 -217t-129 -185zM305 -287q63 59 102 148.5t39 165.5v10h-8q-33 0 -53 20q-25 25 -25 62t25 61q20 20 55 21q35 0 58 -21 q2 -2 14 -20q18 -37 18 -92q0 -98 -51 -217t-129 -185z" />
<glyph unicode="&#x2022;" horiz-adv-x="614" d="M139 657q0 76 47 121q47 41 111 41q63 0 111 -41q47 -47 47 -121q0 -72 -47 -118q-43 -41 -111 -41t-111 41q-47 45 -47 118z" />
<glyph unicode="&#x2026;" horiz-adv-x="1357" d="M154 76q0 43 28 69q29 25 64 25q39 0 65 -25q27 -27 27 -69q0 -43 -27 -70q-29 -25 -65 -24q-35 -1 -64 24q-29 27 -28 70zM584 76q0 43 28 69q29 25 64 25q39 0 65 -25q27 -27 27 -69q0 -43 -27 -70q-27 -25 -65 -24q-35 -1 -64 24q-29 27 -28 70zM1014 76q0 43 28 69 q29 25 64 25q37 0 65 -25q27 -27 27 -69q0 -43 -27 -70q-27 -25 -65 -24q-35 -1 -64 24q-29 27 -28 70z" />
<glyph unicode="&#x202f;" horiz-adv-x="358" />
<glyph unicode="&#x2039;" horiz-adv-x="661" d="M170 512l317 350l45 -53l-221 -299l221 -303l-47 -55z" />
<glyph unicode="&#x203a;" horiz-adv-x="661" d="M125 205l221 297l-219 305l47 55l313 -362l-315 -348z" />
<glyph unicode="&#x205f;" horiz-adv-x="447" />
<glyph unicode="&#x20ac;" horiz-adv-x="1167" d="M94 469v82h117q-4 66 -4 104q0 59 2 88l-115 7v79h121q63 518 510 519q92 0 170 -24t129 -50.5t51 -30.5l-18 -92q0 2 -49.5 28.5t-119 49t-147.5 22.5q-174 0 -260 -100t-106 -322h504v-90h-508q-2 -27 -2 -84q0 -72 2 -104h508v-90h-500q25 -207 115 -298t260 -91 q98 0 171.5 36.5t117.5 79.5t44 50l33 -68q0 -8 -48 -57.5t-136 -91t-211 -41.5q-438 0 -506 483z" />
<glyph unicode="&#x2122;" horiz-adv-x="1538" d="M119 1462v74h223v-2h92v2h260v-74h-260v-643h-92v643h-223zM739 819l37 717h96l207 -629l232 629h90l20 -717h-88l-18 555l-205 -555h-82l-203 576l-16 -576h-70z" />
<glyph unicode="&#x25fc;" horiz-adv-x="1024" d="M0 0v1024h1024v-1024h-1024z" />
</font>
</defs>
</svg>
